<svg width="401" height="424" viewBox="0 0 401 424" fill="none" xmlns="http://www.w3.org/2000/svg">
<path d="M3.53516 401.98V402.967H0.429688V401.98H3.53516Z" fill="black"/>
<path d="M5.50781 421.074H3.25195V423.33H2.25586V421.074H0V420.078H2.25586V417.822H3.25195V420.078H5.50781V421.074Z" fill="black"/>
<path d="M362.59 265.66L366.92 261.33L362.59 257L358.26 261.33L362.59 265.66ZM362.59 250.33L361.84 250.33L361.84 261.33L362.59 261.33L363.34 261.33L363.34 250.33L362.59 250.33Z" fill="black"/>
<path d="M150.793 32.7832C150.973 32.8066 151.164 32.8652 151.367 32.959C151.57 33.0527 151.758 33.1855 151.93 33.3574C152.109 33.5293 152.258 33.7402 152.375 33.9902C152.492 34.2324 152.551 34.5137 152.551 34.834C152.551 35.2246 152.492 35.5605 152.375 35.8418C152.258 36.123 152.109 36.3574 151.93 36.5449C151.758 36.7246 151.566 36.8691 151.355 36.9785C151.152 37.0801 150.953 37.1582 150.758 37.2129C150.57 37.2676 150.402 37.3027 150.254 37.3184C150.105 37.3262 150.008 37.3301 149.961 37.3301H148.602V36.2988H149.879C150.293 36.2988 150.617 36.166 150.852 35.9004C151.086 35.6348 151.203 35.2793 151.203 34.834C151.203 34.4121 151.082 34.0566 150.84 33.7676C150.598 33.4785 150.242 33.334 149.773 33.334H148.602V32.3848H149.164C149.336 32.3848 149.512 32.3809 149.691 32.373C149.871 32.3652 150.039 32.3223 150.195 32.2441C150.352 32.166 150.477 32.0332 150.57 31.8457C150.672 31.6582 150.723 31.3887 150.723 31.0371C150.723 30.8965 150.703 30.752 150.664 30.6035C150.625 30.4473 150.547 30.3066 150.43 30.1816C150.312 30.0566 150.145 29.9551 149.926 29.877C149.707 29.7988 149.418 29.7598 149.059 29.7598H148.602V28.6934H149.199C149.566 28.6934 149.922 28.7363 150.266 28.8223C150.609 28.9082 150.914 29.0449 151.18 29.2324C151.445 29.4199 151.656 29.666 151.812 29.9707C151.969 30.2676 152.047 30.623 152.047 31.0371C152.047 31.2793 152.008 31.502 151.93 31.7051C151.852 31.9004 151.754 32.0723 151.637 32.2207C151.52 32.3691 151.383 32.4941 151.227 32.5957C151.078 32.6895 150.934 32.752 150.793 32.7832ZM146.715 28.6934H148.121V37.3301H146.715V28.6934Z" fill="black"/>
<path d="M161.129 28.6934V37.3301H159.723V33.4395H156.465V32.4785H159.723V28.6934H161.129ZM154.555 28.6934H155.984V37.3301H154.555V28.6934Z" fill="black"/>
<path d="M166.191 37.3301H164.762V30.709L163.578 31.8926L162.57 30.8848L164.762 28.6934H166.191V37.3301Z" fill="black"/>
<path d="M168.676 37.3301L171.676 29.8418H167.914V28.6934H173.34L169.988 37.3301H168.676Z" fill="black"/>
<path d="M177.418 31.9629C177.824 31.9629 178.188 32.0371 178.508 32.1855C178.836 32.3262 179.113 32.5176 179.34 32.7598C179.566 33.002 179.738 33.2754 179.855 33.5801C179.973 33.8848 180.031 34.2012 180.031 34.5293C180.031 35.1699 179.926 35.6816 179.715 36.0645C179.504 36.4395 179.242 36.7285 178.93 36.9316C178.625 37.127 178.305 37.252 177.969 37.3066C177.633 37.3613 177.344 37.3887 177.102 37.3887C176.836 37.3887 176.582 37.3691 176.34 37.3301C176.098 37.2832 175.875 37.2285 175.672 37.166C175.477 37.0957 175.305 37.0293 175.156 36.9668C175.008 36.8965 174.895 36.8418 174.816 36.8027V35.6309C174.926 35.7012 175.062 35.7793 175.227 35.8652C175.398 35.9434 175.578 36.0215 175.766 36.0996C175.953 36.1699 176.148 36.2285 176.352 36.2754C176.562 36.3223 176.758 36.3457 176.938 36.3457C177.516 36.3457 177.969 36.1973 178.297 35.9004C178.625 35.6035 178.789 35.1465 178.789 34.5293C178.789 34.084 178.645 33.7324 178.355 33.4746C178.074 33.2168 177.703 33.0879 177.242 33.0879C177.094 33.0879 176.945 33.0996 176.797 33.123C176.648 33.1387 176.508 33.166 176.375 33.2051L176.516 32.0449C176.672 32.0137 176.836 31.9941 177.008 31.9863C177.188 31.9707 177.324 31.9629 177.418 31.9629ZM175.859 33.5098H174.758C174.758 33.4473 174.766 33.3301 174.781 33.1582C174.797 32.9863 174.816 32.7832 174.84 32.5488C174.863 32.3066 174.891 32.0449 174.922 31.7637C174.953 31.4824 174.984 31.1973 175.016 30.9082C175.094 30.2363 175.184 29.498 175.285 28.6934H179.562V29.8418H176.34C176.262 30.4199 176.199 30.8691 176.152 31.1895C176.105 31.5098 176.07 31.748 176.047 31.9043C176.031 32.0605 176.02 32.1582 176.012 32.1973C176.012 32.2285 176.012 32.248 176.012 32.2559L175.918 33.041L175.859 33.5098Z" fill="black"/>
<path d="M185.141 29.7129C184.852 29.7129 184.59 29.7676 184.355 29.877C184.121 29.9863 183.922 30.1738 183.758 30.4395C183.594 30.6973 183.465 31.0332 183.371 31.4473C183.285 31.8613 183.238 32.3691 183.23 32.9707C183.238 33.4473 183.27 33.8691 183.324 34.2363C183.379 34.6035 183.461 34.916 183.57 35.1738L182.926 36.5449C182.566 36.1777 182.289 35.7012 182.094 35.1152C181.898 34.5215 181.801 33.8066 181.801 32.9707C181.801 32.2441 181.875 31.6074 182.023 31.0605C182.18 30.5059 182.398 30.0449 182.68 29.6777C182.969 29.3105 183.316 29.0332 183.723 28.8457C184.137 28.6504 184.598 28.5527 185.105 28.5527C185.645 28.5527 186.117 28.6543 186.523 28.8574L186.008 29.959C185.75 29.7949 185.461 29.7129 185.141 29.7129ZM187.25 29.3613C187.633 29.7207 187.922 30.2012 188.117 30.8027C188.32 31.4043 188.422 32.127 188.422 32.9707C188.422 33.6973 188.344 34.3379 188.188 34.8926C188.039 35.4473 187.82 35.9082 187.531 36.2754C187.242 36.6426 186.895 36.9199 186.488 37.1074C186.082 37.2949 185.621 37.3887 185.105 37.3887C184.551 37.3887 184.059 37.2793 183.629 37.0605L184.156 35.9473C184.398 36.1426 184.703 36.2402 185.07 36.2402C185.359 36.2402 185.621 36.1855 185.855 36.0762C186.098 35.959 186.301 35.7715 186.465 35.5137C186.629 35.2559 186.754 34.9199 186.84 34.5059C186.934 34.084 186.984 33.5723 186.992 32.9707C186.984 32.4785 186.949 32.0488 186.887 31.6816C186.824 31.3145 186.734 31.002 186.617 30.7441C186.609 30.7363 186.605 30.7285 186.605 30.7207L187.25 29.3613Z" fill="black"/>
<path d="M82.668 239.693H84.0977L86.418 245.025V247.193H86.043L84.0977 242.389V248.33H82.668V239.693ZM89.2188 239.693H90.6484V248.33H89.2188V242.389L87.2852 247.193H86.8984V245.049L89.2188 239.693Z" fill="black"/>
<path d="M96.0273 243.783C96.207 243.807 96.3906 243.865 96.5781 243.959C96.7734 244.053 96.9531 244.186 97.1172 244.357C97.2812 244.529 97.418 244.74 97.5273 244.99C97.6367 245.232 97.6914 245.514 97.6914 245.834C97.6914 246.225 97.6328 246.564 97.5156 246.854C97.4062 247.135 97.2656 247.369 97.0938 247.557C96.9219 247.744 96.7266 247.896 96.5078 248.014C96.2969 248.123 96.0898 248.205 95.8867 248.26C95.6836 248.314 95.4961 248.35 95.3242 248.365C95.1602 248.381 95.0312 248.389 94.9375 248.389C94.2812 248.389 93.7617 248.346 93.3789 248.26C93.0039 248.166 92.7422 248.072 92.5938 247.979L92.9102 246.971C92.9805 247.01 93.0469 247.053 93.1094 247.1C93.1719 247.146 93.2617 247.193 93.3789 247.24C93.4961 247.279 93.6602 247.314 93.8711 247.346C94.082 247.369 94.3711 247.381 94.7383 247.381C95.2773 247.381 95.6797 247.236 95.9453 246.947C96.2109 246.65 96.3438 246.279 96.3438 245.834C96.3438 245.412 96.2227 245.057 95.9805 244.768C95.7383 244.479 95.3828 244.334 94.9141 244.334H93.7188H93.7305L93.7188 243.385H94.5156C94.6875 243.385 94.8594 243.381 95.0312 243.373C95.2109 243.365 95.3789 243.322 95.5352 243.244C95.6914 243.166 95.8203 243.033 95.9219 242.846C96.0234 242.658 96.0742 242.389 96.0742 242.037C96.0742 241.896 96.0625 241.748 96.0391 241.592C96.0156 241.436 95.9492 241.291 95.8398 241.158C95.7383 241.025 95.5859 240.92 95.3828 240.842C95.1797 240.756 94.8984 240.713 94.5391 240.713C94.1797 240.713 93.8906 240.748 93.6719 240.818C93.4609 240.881 93.3008 240.932 93.1914 240.971L92.7812 239.916C92.9688 239.861 93.1992 239.803 93.4727 239.74C93.7539 239.678 94.1562 239.646 94.6797 239.646C95.0469 239.646 95.3945 239.693 95.7227 239.787C96.0508 239.873 96.3359 240.014 96.5781 240.209C96.8281 240.404 97.0234 240.654 97.1641 240.959C97.3125 241.264 97.3867 241.623 97.3867 242.037C97.3867 242.279 97.3438 242.502 97.2578 242.705C97.1719 242.9 97.0625 243.072 96.9297 243.221C96.7969 243.369 96.6484 243.494 96.4844 243.596C96.3203 243.689 96.168 243.752 96.0273 243.783Z" fill="black"/>
<path d="M67.5508 177.33H66.1211V170.709L64.9375 171.893L63.9297 170.885L66.1211 168.693H67.5508V177.33Z" fill="black"/>
<path d="M72.8359 172.783C73.0156 172.807 73.1992 172.865 73.3867 172.959C73.582 173.053 73.7617 173.186 73.9258 173.357C74.0898 173.529 74.2266 173.74 74.3359 173.99C74.4453 174.232 74.5 174.514 74.5 174.834C74.5 175.225 74.4414 175.564 74.3242 175.854C74.2148 176.135 74.0742 176.369 73.9023 176.557C73.7305 176.744 73.5352 176.896 73.3164 177.014C73.1055 177.123 72.8984 177.205 72.6953 177.26C72.4922 177.314 72.3047 177.35 72.1328 177.365C71.9688 177.381 71.8398 177.389 71.7461 177.389C71.0898 177.389 70.5703 177.346 70.1875 177.26C69.8125 177.166 69.5508 177.072 69.4023 176.979L69.7188 175.971C69.7891 176.01 69.8555 176.053 69.918 176.1C69.9805 176.146 70.0703 176.193 70.1875 176.24C70.3047 176.279 70.4688 176.314 70.6797 176.346C70.8906 176.369 71.1797 176.381 71.5469 176.381C72.0859 176.381 72.4883 176.236 72.7539 175.947C73.0195 175.65 73.1523 175.279 73.1523 174.834C73.1523 174.412 73.0312 174.057 72.7891 173.768C72.5469 173.479 72.1914 173.334 71.7227 173.334H70.5273H70.5391L70.5273 172.385H71.3242C71.4961 172.385 71.668 172.381 71.8398 172.373C72.0195 172.365 72.1875 172.322 72.3438 172.244C72.5 172.166 72.6289 172.033 72.7305 171.846C72.832 171.658 72.8828 171.389 72.8828 171.037C72.8828 170.896 72.8711 170.748 72.8477 170.592C72.8242 170.436 72.7578 170.291 72.6484 170.158C72.5469 170.025 72.3945 169.92 72.1914 169.842C71.9883 169.756 71.707 169.713 71.3477 169.713C70.9883 169.713 70.6992 169.748 70.4805 169.818C70.2695 169.881 70.1094 169.932 70 169.971L69.5898 168.916C69.7773 168.861 70.0078 168.803 70.2812 168.74C70.5625 168.678 70.9648 168.646 71.4883 168.646C71.8555 168.646 72.2031 168.693 72.5312 168.787C72.8594 168.873 73.1445 169.014 73.3867 169.209C73.6367 169.404 73.832 169.654 73.9727 169.959C74.1211 170.264 74.1953 170.623 74.1953 171.037C74.1953 171.279 74.1523 171.502 74.0664 171.705C73.9805 171.9 73.8711 172.072 73.7383 172.221C73.6055 172.369 73.457 172.494 73.293 172.596C73.1289 172.689 72.9766 172.752 72.8359 172.783Z" fill="black"/>
<path d="M77.3711 176.533C77.3711 176.768 77.2891 176.967 77.125 177.131C76.9609 177.295 76.7617 177.377 76.5273 177.377C76.293 177.377 76.0938 177.295 75.9297 177.131C75.7734 176.967 75.6953 176.768 75.6953 176.533C75.6953 176.299 75.7773 176.104 75.9414 175.947C76.1055 175.783 76.3008 175.701 76.5273 175.701C76.7617 175.701 76.9609 175.783 77.125 175.947C77.2891 176.104 77.3711 176.299 77.3711 176.533Z" fill="black"/>
<path d="M81.3086 171.963C81.7148 171.963 82.0781 172.037 82.3984 172.186C82.7266 172.326 83.0039 172.518 83.2305 172.76C83.457 173.002 83.6289 173.275 83.7461 173.58C83.8633 173.885 83.9219 174.201 83.9219 174.529C83.9219 175.17 83.8164 175.682 83.6055 176.064C83.3945 176.439 83.1328 176.729 82.8203 176.932C82.5156 177.127 82.1953 177.252 81.8594 177.307C81.5234 177.361 81.2344 177.389 80.9922 177.389C80.7266 177.389 80.4727 177.369 80.2305 177.33C79.9883 177.283 79.7656 177.229 79.5625 177.166C79.3672 177.096 79.1953 177.029 79.0469 176.967C78.8984 176.896 78.7852 176.842 78.707 176.803V175.631C78.8164 175.701 78.9531 175.779 79.1172 175.865C79.2891 175.943 79.4688 176.021 79.6562 176.1C79.8438 176.17 80.0391 176.229 80.2422 176.275C80.4531 176.322 80.6484 176.346 80.8281 176.346C81.4062 176.346 81.8594 176.197 82.1875 175.9C82.5156 175.604 82.6797 175.146 82.6797 174.529C82.6797 174.084 82.5352 173.732 82.2461 173.475C81.9648 173.217 81.5938 173.088 81.1328 173.088C80.9844 173.088 80.8359 173.1 80.6875 173.123C80.5391 173.139 80.3984 173.166 80.2656 173.205L80.4062 172.045C80.5625 172.014 80.7266 171.994 80.8984 171.986C81.0781 171.971 81.2148 171.963 81.3086 171.963ZM79.75 173.51H78.6484C78.6484 173.447 78.6562 173.33 78.6719 173.158C78.6875 172.986 78.707 172.783 78.7305 172.549C78.7539 172.307 78.7812 172.045 78.8125 171.764C78.8438 171.482 78.875 171.197 78.9062 170.908C78.9844 170.236 79.0742 169.498 79.1758 168.693H83.4531V169.842H80.2305C80.1523 170.42 80.0898 170.869 80.043 171.189C79.9961 171.51 79.9609 171.748 79.9375 171.904C79.9219 172.061 79.9102 172.158 79.9023 172.197C79.9023 172.229 79.9023 172.248 79.9023 172.256L79.8086 173.041L79.75 173.51Z" fill="black"/>
<path d="M85.9023 168.693H87.332L89.6523 174.025V176.193H89.2773L87.332 171.389V177.33H85.9023V168.693ZM92.4531 168.693H93.8828V177.33H92.4531V171.389L90.5195 176.193H90.1328V174.049L92.4531 168.693Z" fill="black"/>
<path d="M96.0391 168.693H97.4688L99.7891 174.025V176.193H99.4141L97.4688 171.389V177.33H96.0391V168.693ZM102.59 168.693H104.02V177.33H102.59V171.389L100.656 176.193H100.27V174.049L102.59 168.693Z" fill="black"/>
<path d="M211.891 136.783C212.07 136.807 212.254 136.865 212.441 136.959C212.637 137.053 212.816 137.186 212.98 137.357C213.145 137.529 213.281 137.74 213.391 137.99C213.5 138.232 213.555 138.514 213.555 138.834C213.555 139.225 213.496 139.564 213.379 139.854C213.27 140.135 213.129 140.369 212.957 140.557C212.785 140.744 212.59 140.896 212.371 141.014C212.16 141.123 211.953 141.205 211.75 141.26C211.547 141.314 211.359 141.35 211.188 141.365C211.023 141.381 210.895 141.389 210.801 141.389C210.145 141.389 209.625 141.346 209.242 141.26C208.867 141.166 208.605 141.072 208.457 140.979L208.773 139.971C208.844 140.01 208.91 140.053 208.973 140.1C209.035 140.146 209.125 140.193 209.242 140.24C209.359 140.279 209.523 140.314 209.734 140.346C209.945 140.369 210.234 140.381 210.602 140.381C211.141 140.381 211.543 140.236 211.809 139.947C212.074 139.65 212.207 139.279 212.207 138.834C212.207 138.412 212.086 138.057 211.844 137.768C211.602 137.479 211.246 137.334 210.777 137.334H209.582H209.594L209.582 136.385H210.379C210.551 136.385 210.723 136.381 210.895 136.373C211.074 136.365 211.242 136.322 211.398 136.244C211.555 136.166 211.684 136.033 211.785 135.846C211.887 135.658 211.938 135.389 211.938 135.037C211.938 134.896 211.926 134.748 211.902 134.592C211.879 134.436 211.812 134.291 211.703 134.158C211.602 134.025 211.449 133.92 211.246 133.842C211.043 133.756 210.762 133.713 210.402 133.713C210.043 133.713 209.754 133.748 209.535 133.818C209.324 133.881 209.164 133.932 209.055 133.971L208.645 132.916C208.832 132.861 209.062 132.803 209.336 132.74C209.617 132.678 210.02 132.646 210.543 132.646C210.91 132.646 211.258 132.693 211.586 132.787C211.914 132.873 212.199 133.014 212.441 133.209C212.691 133.404 212.887 133.654 213.027 133.959C213.176 134.264 213.25 134.623 213.25 135.037C213.25 135.279 213.207 135.502 213.121 135.705C213.035 135.9 212.926 136.072 212.793 136.221C212.66 136.369 212.512 136.494 212.348 136.596C212.184 136.689 212.031 136.752 211.891 136.783Z" fill="black"/>
<path d="M217.938 135.963C218.344 135.963 218.707 136.037 219.027 136.186C219.355 136.326 219.633 136.518 219.859 136.76C220.086 137.002 220.258 137.275 220.375 137.58C220.492 137.885 220.551 138.201 220.551 138.529C220.551 139.17 220.445 139.682 220.234 140.064C220.023 140.439 219.762 140.729 219.449 140.932C219.145 141.127 218.824 141.252 218.488 141.307C218.152 141.361 217.863 141.389 217.621 141.389C217.355 141.389 217.102 141.369 216.859 141.33C216.617 141.283 216.395 141.229 216.191 141.166C215.996 141.096 215.824 141.029 215.676 140.967C215.527 140.896 215.414 140.842 215.336 140.803V139.631C215.445 139.701 215.582 139.779 215.746 139.865C215.918 139.943 216.098 140.021 216.285 140.1C216.473 140.17 216.668 140.229 216.871 140.275C217.082 140.322 217.277 140.346 217.457 140.346C218.035 140.346 218.488 140.197 218.816 139.9C219.145 139.604 219.309 139.146 219.309 138.529C219.309 138.084 219.164 137.732 218.875 137.475C218.594 137.217 218.223 137.088 217.762 137.088C217.613 137.088 217.465 137.1 217.316 137.123C217.168 137.139 217.027 137.166 216.895 137.205L217.035 136.045C217.191 136.014 217.355 135.994 217.527 135.986C217.707 135.971 217.844 135.963 217.938 135.963ZM216.379 137.51H215.277C215.277 137.447 215.285 137.33 215.301 137.158C215.316 136.986 215.336 136.783 215.359 136.549C215.383 136.307 215.41 136.045 215.441 135.764C215.473 135.482 215.504 135.197 215.535 134.908C215.613 134.236 215.703 133.498 215.805 132.693H220.082V133.842H216.859C216.781 134.42 216.719 134.869 216.672 135.189C216.625 135.51 216.59 135.748 216.566 135.904C216.551 136.061 216.539 136.158 216.531 136.197C216.531 136.229 216.531 136.248 216.531 136.256L216.438 137.041L216.379 137.51Z" fill="black"/>
<path d="M223.516 140.533C223.516 140.768 223.434 140.967 223.27 141.131C223.105 141.295 222.906 141.377 222.672 141.377C222.438 141.377 222.238 141.295 222.074 141.131C221.918 140.967 221.84 140.768 221.84 140.533C221.84 140.299 221.922 140.104 222.086 139.947C222.25 139.783 222.445 139.701 222.672 139.701C222.906 139.701 223.105 139.783 223.27 139.947C223.434 140.104 223.516 140.299 223.516 140.533Z" fill="black"/>
<path d="M227.84 141.33H226.41V134.709L225.227 135.893L224.219 134.885L226.41 132.693H227.84V141.33Z" fill="black"/>
<path d="M229.902 132.693H231.332L233.652 138.025V140.193H233.277L231.332 135.389V141.33H229.902V132.693ZM236.453 132.693H237.883V141.33H236.453V135.389L234.52 140.193H234.133V138.049L236.453 132.693Z" fill="black"/>
<path d="M240.039 132.693H241.469L243.789 138.025V140.193H243.414L241.469 135.389V141.33H240.039V132.693ZM246.59 132.693H248.02V141.33H246.59V135.389L244.656 140.193H244.27V138.049L246.59 132.693Z" fill="black"/>
<path d="M52.793 354.783C52.9727 354.807 53.1641 354.865 53.3672 354.959C53.5703 355.053 53.7578 355.186 53.9297 355.357C54.1094 355.529 54.2578 355.74 54.375 355.99C54.4922 356.232 54.5508 356.514 54.5508 356.834C54.5508 357.225 54.4922 357.561 54.375 357.842C54.2578 358.123 54.1094 358.357 53.9297 358.545C53.7578 358.725 53.5664 358.869 53.3555 358.979C53.1523 359.08 52.9531 359.158 52.7578 359.213C52.5703 359.268 52.4023 359.303 52.2539 359.318C52.1055 359.326 52.0078 359.33 51.9609 359.33H50.6016V358.299H51.8789C52.293 358.299 52.6172 358.166 52.8516 357.9C53.0859 357.635 53.2031 357.279 53.2031 356.834C53.2031 356.412 53.082 356.057 52.8398 355.768C52.5977 355.479 52.2422 355.334 51.7734 355.334H50.6016V354.385H51.1641C51.3359 354.385 51.5117 354.381 51.6914 354.373C51.8711 354.365 52.0391 354.322 52.1953 354.244C52.3516 354.166 52.4766 354.033 52.5703 353.846C52.6719 353.658 52.7227 353.389 52.7227 353.037C52.7227 352.896 52.7031 352.752 52.6641 352.604C52.625 352.447 52.5469 352.307 52.4297 352.182C52.3125 352.057 52.1445 351.955 51.9258 351.877C51.707 351.799 51.418 351.76 51.0586 351.76H50.6016V350.693H51.1992C51.5664 350.693 51.9219 350.736 52.2656 350.822C52.6094 350.908 52.9141 351.045 53.1797 351.232C53.4453 351.42 53.6562 351.666 53.8125 351.971C53.9688 352.268 54.0469 352.623 54.0469 353.037C54.0469 353.279 54.0078 353.502 53.9297 353.705C53.8516 353.9 53.7539 354.072 53.6367 354.221C53.5195 354.369 53.3828 354.494 53.2266 354.596C53.0781 354.689 52.9336 354.752 52.793 354.783ZM48.7148 350.693H50.1211V359.33H48.7148V350.693Z" fill="black"/>
<path d="M63.6094 359.33H62.1562L59.918 352.861L57.6562 359.33H56.1914L59.2148 350.705H60.6094L63.6094 359.33ZM60.6914 356.588L61.0312 357.537H58.793L59.1211 356.588H60.6914Z" fill="black"/>
<path d="M71.5195 350.693V351.654H68.9414V359.33H67.5234V351.654H64.9453V350.693H71.5195Z" fill="black"/>
<path d="M385.668 102.693H387.098L389.418 108.025V110.193H389.043L387.098 105.389V111.33H385.668V102.693ZM392.219 102.693H393.648V111.33H392.219V105.389L390.285 110.193H389.898V108.049L392.219 102.693Z" fill="black"/>
<path d="M399.027 106.783C399.207 106.807 399.391 106.865 399.578 106.959C399.773 107.053 399.953 107.186 400.117 107.357C400.281 107.529 400.418 107.74 400.527 107.99C400.637 108.232 400.691 108.514 400.691 108.834C400.691 109.225 400.633 109.564 400.516 109.854C400.406 110.135 400.266 110.369 400.094 110.557C399.922 110.744 399.727 110.896 399.508 111.014C399.297 111.123 399.09 111.205 398.887 111.26C398.684 111.314 398.496 111.35 398.324 111.365C398.16 111.381 398.031 111.389 397.938 111.389C397.281 111.389 396.762 111.346 396.379 111.26C396.004 111.166 395.742 111.072 395.594 110.979L395.91 109.971C395.98 110.01 396.047 110.053 396.109 110.1C396.172 110.146 396.262 110.193 396.379 110.24C396.496 110.279 396.66 110.314 396.871 110.346C397.082 110.369 397.371 110.381 397.738 110.381C398.277 110.381 398.68 110.236 398.945 109.947C399.211 109.65 399.344 109.279 399.344 108.834C399.344 108.412 399.223 108.057 398.98 107.768C398.738 107.479 398.383 107.334 397.914 107.334H396.719H396.73L396.719 106.385H397.516C397.688 106.385 397.859 106.381 398.031 106.373C398.211 106.365 398.379 106.322 398.535 106.244C398.691 106.166 398.82 106.033 398.922 105.846C399.023 105.658 399.074 105.389 399.074 105.037C399.074 104.896 399.062 104.748 399.039 104.592C399.016 104.436 398.949 104.291 398.84 104.158C398.738 104.025 398.586 103.92 398.383 103.842C398.18 103.756 397.898 103.713 397.539 103.713C397.18 103.713 396.891 103.748 396.672 103.818C396.461 103.881 396.301 103.932 396.191 103.971L395.781 102.916C395.969 102.861 396.199 102.803 396.473 102.74C396.754 102.678 397.156 102.646 397.68 102.646C398.047 102.646 398.395 102.693 398.723 102.787C399.051 102.873 399.336 103.014 399.578 103.209C399.828 103.404 400.023 103.654 400.164 103.959C400.312 104.264 400.387 104.623 400.387 105.037C400.387 105.279 400.344 105.502 400.258 105.705C400.172 105.9 400.062 106.072 399.93 106.221C399.797 106.369 399.648 106.494 399.484 106.596C399.32 106.689 399.168 106.752 399.027 106.783Z" fill="black"/>
<path d="M343.543 242.357C343.363 242.154 343.172 242.002 342.969 241.9C342.766 241.799 342.547 241.74 342.312 241.725V240.564C343.188 240.604 343.922 240.912 344.516 241.49L343.543 242.357ZM342.312 248.229C342.547 248.205 342.766 248.143 342.969 248.041C343.18 247.939 343.371 247.791 343.543 247.596L344.516 248.451C344.219 248.74 343.887 248.963 343.52 249.119C343.152 249.275 342.75 249.365 342.312 249.389V248.229ZM338.516 244.971C338.516 244.275 338.598 243.662 338.762 243.131C338.934 242.6 339.168 242.15 339.465 241.783C339.762 241.416 340.109 241.131 340.508 240.928C340.914 240.725 341.355 240.604 341.832 240.564V241.736C341.574 241.775 341.332 241.865 341.105 242.006C340.879 242.139 340.68 242.334 340.508 242.592C340.336 242.85 340.199 243.178 340.098 243.576C340.004 243.967 339.953 244.432 339.945 244.971C339.953 245.518 340.004 245.986 340.098 246.377C340.199 246.768 340.336 247.096 340.508 247.361C340.68 247.627 340.879 247.83 341.105 247.971C341.34 248.111 341.582 248.197 341.832 248.229V249.377C341.355 249.346 340.914 249.229 340.508 249.025C340.109 248.822 339.762 248.537 339.465 248.17C339.168 247.803 338.934 247.354 338.762 246.822C338.598 246.283 338.516 245.666 338.516 244.971Z" fill="black"/>
<path d="M346.355 244.971C346.355 244.275 346.438 243.662 346.602 243.131C346.773 242.592 347.008 242.139 347.305 241.771C347.609 241.396 347.965 241.111 348.371 240.916C348.785 240.713 349.234 240.596 349.719 240.564V241.736C349.453 241.768 349.203 241.85 348.969 241.982C348.734 242.115 348.531 242.311 348.359 242.568C348.188 242.826 348.051 243.154 347.949 243.553C347.848 243.951 347.793 244.424 347.785 244.971C347.793 245.525 347.848 246.002 347.949 246.4C348.051 246.791 348.188 247.119 348.359 247.385C348.539 247.65 348.746 247.854 348.98 247.994C349.215 248.127 349.461 248.205 349.719 248.229V249.389C349.242 249.357 348.797 249.244 348.383 249.049C347.969 248.846 347.609 248.561 347.305 248.193C347.008 247.818 346.773 247.361 346.602 246.822C346.438 246.283 346.355 245.666 346.355 244.971ZM350.188 240.564C350.664 240.588 351.105 240.701 351.512 240.904C351.926 241.107 352.281 241.396 352.578 241.771C352.883 242.139 353.121 242.592 353.293 243.131C353.465 243.662 353.551 244.275 353.551 244.971C353.551 245.666 353.465 246.283 353.293 246.822C353.121 247.361 352.883 247.818 352.578 248.193C352.281 248.561 351.93 248.846 351.523 249.049C351.117 249.244 350.672 249.357 350.188 249.389V248.229C350.453 248.197 350.703 248.115 350.938 247.982C351.172 247.842 351.375 247.643 351.547 247.385C351.719 247.119 351.855 246.791 351.957 246.4C352.059 246.002 352.113 245.525 352.121 244.971C352.113 244.416 352.059 243.943 351.957 243.553C351.855 243.154 351.715 242.826 351.535 242.568C351.363 242.303 351.16 242.104 350.926 241.971C350.691 241.83 350.445 241.748 350.188 241.725V240.564Z" fill="black"/>
<path d="M361.109 240.693V241.83L356.996 248.006L356.762 248.193H361.109V249.33H355.367V248.193L359.48 242.018L359.727 241.83H355.367V240.693H361.109Z" fill="black"/>
<path d="M364.543 249.33H363.113V240.693H364.543V249.33Z" fill="black"/>
<path d="M366.676 240.693H368.082V249.33H366.676V240.693ZM372.535 249.33H371.047L369.418 246.201C369.395 246.201 369.367 246.205 369.336 246.213C369.312 246.213 369.273 246.213 369.219 246.213C369.164 246.213 369.082 246.213 368.973 246.213C368.871 246.213 368.734 246.213 368.562 246.213V245.182H369.359C369.531 245.182 369.703 245.154 369.875 245.1C370.047 245.037 370.203 244.939 370.344 244.807C370.484 244.674 370.598 244.49 370.684 244.256C370.77 244.014 370.812 243.717 370.812 243.365C370.812 243.225 370.793 243.064 370.754 242.885C370.715 242.697 370.633 242.521 370.508 242.357C370.391 242.186 370.223 242.045 370.004 241.936C369.785 241.818 369.496 241.76 369.137 241.76H368.562V240.693H369.16C369.527 240.693 369.891 240.752 370.25 240.869C370.609 240.986 370.93 241.162 371.211 241.396C371.5 241.631 371.73 241.916 371.902 242.252C372.082 242.58 372.172 242.951 372.172 243.365C372.172 243.99 372.027 244.521 371.738 244.959C371.449 245.396 371.059 245.721 370.566 245.932L372.535 249.33Z" fill="black"/>
<path d="M269.121 37.3301H267.691V28.6934H269.121V37.3301Z" fill="black"/>
<path d="M276.152 30.3574C275.973 30.1543 275.781 30.002 275.578 29.9004C275.375 29.7988 275.156 29.7402 274.922 29.7246V28.5645C275.797 28.6035 276.531 28.9121 277.125 29.4902L276.152 30.3574ZM274.922 36.2285C275.156 36.2051 275.375 36.1426 275.578 36.041C275.789 35.9395 275.98 35.791 276.152 35.5957L277.125 36.4512C276.828 36.7402 276.496 36.9629 276.129 37.1191C275.762 37.2754 275.359 37.3652 274.922 37.3887V36.2285ZM271.125 32.9707C271.125 32.2754 271.207 31.6621 271.371 31.1309C271.543 30.5996 271.777 30.1504 272.074 29.7832C272.371 29.416 272.719 29.1309 273.117 28.9277C273.523 28.7246 273.965 28.6035 274.441 28.5645V29.7363C274.184 29.7754 273.941 29.8652 273.715 30.0059C273.488 30.1387 273.289 30.334 273.117 30.5918C272.945 30.8496 272.809 31.1777 272.707 31.5762C272.613 31.9668 272.562 32.4316 272.555 32.9707C272.562 33.5176 272.613 33.9863 272.707 34.377C272.809 34.7676 272.945 35.0957 273.117 35.3613C273.289 35.627 273.488 35.8301 273.715 35.9707C273.949 36.1113 274.191 36.1973 274.441 36.2285V37.377C273.965 37.3457 273.523 37.2285 273.117 37.0254C272.719 36.8223 272.371 36.5371 272.074 36.1699C271.777 35.8027 271.543 35.3535 271.371 34.8223C271.207 34.2832 271.125 33.666 271.125 32.9707Z" fill="black"/>
<path d="M283.113 30.0293C283.074 30.0137 283.027 29.9863 282.973 29.9473C282.918 29.9082 282.84 29.873 282.738 29.8418C282.637 29.8027 282.508 29.7715 282.352 29.748C282.195 29.7246 281.996 29.7207 281.754 29.7363V28.5527C282.098 28.5605 282.445 28.5996 282.797 28.6699C283.156 28.7324 283.445 28.834 283.664 28.9746C283.617 29.0762 283.562 29.1895 283.5 29.3145C283.438 29.4316 283.379 29.5449 283.324 29.6543C283.27 29.7559 283.223 29.8418 283.184 29.9121C283.145 29.9824 283.121 30.0215 283.113 30.0293ZM279.07 30.9668C279.07 30.623 279.129 30.3145 279.246 30.041C279.363 29.7676 279.52 29.5293 279.715 29.3262C279.918 29.1152 280.152 28.9512 280.418 28.834C280.691 28.709 280.977 28.627 281.273 28.5879V29.8184C281.023 29.9043 280.816 30.0566 280.652 30.2754C280.488 30.4863 280.406 30.7012 280.406 30.9199C280.406 31.2246 280.488 31.4707 280.652 31.6582C280.816 31.8457 281.023 32.0098 281.273 32.1504V33.4863C281.016 33.3613 280.758 33.2285 280.5 33.0879C280.242 32.9395 280.008 32.7676 279.797 32.5723C279.586 32.377 279.41 32.1504 279.27 31.8926C279.137 31.6348 279.07 31.3262 279.07 30.9668ZM279.258 35.748C279.367 35.8105 279.504 35.873 279.668 35.9355C279.84 35.9902 280.016 36.0449 280.195 36.0996C280.375 36.1465 280.555 36.1855 280.734 36.2168C280.914 36.248 281.082 36.2637 281.238 36.2637H281.273V37.377H281.25C281.062 37.377 280.867 37.3652 280.664 37.3418C280.469 37.3262 280.27 37.2949 280.066 37.248C279.863 37.2012 279.668 37.1387 279.48 37.0605C279.301 36.9746 279.145 36.873 279.012 36.7559L279.258 35.748ZM281.754 32.3848C282.012 32.502 282.273 32.627 282.539 32.7598C282.812 32.8926 283.059 33.0566 283.277 33.252C283.496 33.4395 283.676 33.6699 283.816 33.9434C283.957 34.2168 284.027 34.5566 284.027 34.9629C284.027 35.2441 283.973 35.5176 283.863 35.7832C283.762 36.0488 283.613 36.291 283.418 36.5098C283.23 36.7207 282.996 36.9004 282.715 37.0488C282.434 37.1973 282.113 37.2949 281.754 37.3418V36.2168C282.395 36.0605 282.715 35.6348 282.715 34.9395C282.715 34.666 282.625 34.4395 282.445 34.2598C282.266 34.0801 282.035 33.9121 281.754 33.7559V32.3848Z" fill="black"/>
<path d="M289.148 33.3105V34.4941H285.422V33.3105H289.148Z" fill="black"/>
<path d="M295.758 34.2012H296.66V35.3145H295.758V37.3301H294.328V28.6934H295.758V34.2012ZM290.59 35.3145V34.2012L293.848 29.3965V31.0723L291.844 34.2012H293.848V35.3145H290.59Z" fill="black"/>
<path d="M301.723 32.7832C301.902 32.8066 302.086 32.8652 302.273 32.959C302.469 33.0527 302.648 33.1855 302.812 33.3574C302.977 33.5293 303.113 33.7402 303.223 33.9902C303.332 34.2324 303.387 34.5137 303.387 34.834C303.387 35.2246 303.328 35.5645 303.211 35.8535C303.102 36.1348 302.961 36.3691 302.789 36.5566C302.617 36.7441 302.422 36.8965 302.203 37.0137C301.992 37.123 301.785 37.2051 301.582 37.2598C301.379 37.3145 301.191 37.3496 301.02 37.3652C300.855 37.3809 300.727 37.3887 300.633 37.3887C299.977 37.3887 299.457 37.3457 299.074 37.2598C298.699 37.166 298.438 37.0723 298.289 36.9785L298.605 35.9707C298.676 36.0098 298.742 36.0527 298.805 36.0996C298.867 36.1465 298.957 36.1934 299.074 36.2402C299.191 36.2793 299.355 36.3145 299.566 36.3457C299.777 36.3691 300.066 36.3809 300.434 36.3809C300.973 36.3809 301.375 36.2363 301.641 35.9473C301.906 35.6504 302.039 35.2793 302.039 34.834C302.039 34.4121 301.918 34.0566 301.676 33.7676C301.434 33.4785 301.078 33.334 300.609 33.334H299.414H299.426L299.414 32.3848H300.211C300.383 32.3848 300.555 32.3809 300.727 32.373C300.906 32.3652 301.074 32.3223 301.23 32.2441C301.387 32.166 301.516 32.0332 301.617 31.8457C301.719 31.6582 301.77 31.3887 301.77 31.0371C301.77 30.8965 301.758 30.748 301.734 30.5918C301.711 30.4355 301.645 30.291 301.535 30.1582C301.434 30.0254 301.281 29.9199 301.078 29.8418C300.875 29.7559 300.594 29.7129 300.234 29.7129C299.875 29.7129 299.586 29.748 299.367 29.8184C299.156 29.8809 298.996 29.9316 298.887 29.9707L298.477 28.916C298.664 28.8613 298.895 28.8027 299.168 28.7402C299.449 28.6777 299.852 28.6465 300.375 28.6465C300.742 28.6465 301.09 28.6934 301.418 28.7871C301.746 28.873 302.031 29.0137 302.273 29.209C302.523 29.4043 302.719 29.6543 302.859 29.959C303.008 30.2637 303.082 30.623 303.082 31.0371C303.082 31.2793 303.039 31.502 302.953 31.7051C302.867 31.9004 302.758 32.0723 302.625 32.2207C302.492 32.3691 302.344 32.4941 302.18 32.5957C302.016 32.6895 301.863 32.752 301.723 32.7832Z" fill="black"/>
<path d="M309.809 34.2012H310.711V35.3145H309.809V37.3301H308.379V28.6934H309.809V34.2012ZM304.641 35.3145V34.2012L307.898 29.3965V31.0723L305.895 34.2012H307.898V35.3145H304.641Z" fill="black"/>
<path d="M315.773 32.7832C315.953 32.8066 316.137 32.8652 316.324 32.959C316.52 33.0527 316.699 33.1855 316.863 33.3574C317.027 33.5293 317.164 33.7402 317.273 33.9902C317.383 34.2324 317.438 34.5137 317.438 34.834C317.438 35.2246 317.379 35.5645 317.262 35.8535C317.152 36.1348 317.012 36.3691 316.84 36.5566C316.668 36.7441 316.473 36.8965 316.254 37.0137C316.043 37.123 315.836 37.2051 315.633 37.2598C315.43 37.3145 315.242 37.3496 315.07 37.3652C314.906 37.3809 314.777 37.3887 314.684 37.3887C314.027 37.3887 313.508 37.3457 313.125 37.2598C312.75 37.166 312.488 37.0723 312.34 36.9785L312.656 35.9707C312.727 36.0098 312.793 36.0527 312.855 36.0996C312.918 36.1465 313.008 36.1934 313.125 36.2402C313.242 36.2793 313.406 36.3145 313.617 36.3457C313.828 36.3691 314.117 36.3809 314.484 36.3809C315.023 36.3809 315.426 36.2363 315.691 35.9473C315.957 35.6504 316.09 35.2793 316.09 34.834C316.09 34.4121 315.969 34.0566 315.727 33.7676C315.484 33.4785 315.129 33.334 314.66 33.334H313.465H313.477L313.465 32.3848H314.262C314.434 32.3848 314.605 32.3809 314.777 32.373C314.957 32.3652 315.125 32.3223 315.281 32.2441C315.438 32.166 315.566 32.0332 315.668 31.8457C315.77 31.6582 315.82 31.3887 315.82 31.0371C315.82 30.8965 315.809 30.748 315.785 30.5918C315.762 30.4355 315.695 30.291 315.586 30.1582C315.484 30.0254 315.332 29.9199 315.129 29.8418C314.926 29.7559 314.645 29.7129 314.285 29.7129C313.926 29.7129 313.637 29.748 313.418 29.8184C313.207 29.8809 313.047 29.9316 312.938 29.9707L312.527 28.916C312.715 28.8613 312.945 28.8027 313.219 28.7402C313.5 28.6777 313.902 28.6465 314.426 28.6465C314.793 28.6465 315.141 28.6934 315.469 28.7871C315.797 28.873 316.082 29.0137 316.324 29.209C316.574 29.4043 316.77 29.6543 316.91 29.959C317.059 30.2637 317.133 30.623 317.133 31.0371C317.133 31.2793 317.09 31.502 317.004 31.7051C316.918 31.9004 316.809 32.0723 316.676 32.2207C316.543 32.3691 316.395 32.4941 316.23 32.5957C316.066 32.6895 315.914 32.752 315.773 32.7832Z" fill="black"/>
<path d="M323.859 34.2012H324.762V35.3145H323.859V37.3301H322.43V28.6934H323.859V34.2012ZM318.691 35.3145V34.2012L321.949 29.3965V31.0723L319.945 34.2012H321.949V35.3145H318.691Z" fill="black"/>
<path d="M380.484 28.6934H381.914V37.3301H380.484L377.578 32.2207V29.5254L380.484 34.6465V28.6934ZM375.668 37.3301V28.6934H377.098V37.3301H375.668Z" fill="black"/>
<path d="M384.094 28.6934H385.523V37.3301H384.094V28.6934ZM389.133 33.4395H386.004V32.4785H389.133V33.4395ZM386.004 36.2637H389.496V37.3301H386.004V36.2637ZM389.496 28.6934V29.7598H386.004V28.6934H389.496Z" fill="black"/>
<path d="M391.242 32.9707C391.242 32.2754 391.324 31.6621 391.488 31.1309C391.66 30.5918 391.895 30.1387 392.191 29.7715C392.496 29.3965 392.852 29.1113 393.258 28.916C393.672 28.7129 394.121 28.5957 394.605 28.5645V29.7363C394.34 29.7676 394.09 29.8496 393.855 29.9824C393.621 30.1152 393.418 30.3105 393.246 30.5684C393.074 30.8262 392.938 31.1543 392.836 31.5527C392.734 31.9512 392.68 32.4238 392.672 32.9707C392.68 33.5254 392.734 34.002 392.836 34.4004C392.938 34.791 393.074 35.1191 393.246 35.3848C393.426 35.6504 393.633 35.8535 393.867 35.9941C394.102 36.127 394.348 36.2051 394.605 36.2285V37.3887C394.129 37.3574 393.684 37.2441 393.27 37.0488C392.855 36.8457 392.496 36.5605 392.191 36.1934C391.895 35.8184 391.66 35.3613 391.488 34.8223C391.324 34.2832 391.242 33.666 391.242 32.9707ZM395.074 28.5645C395.551 28.5879 395.992 28.7012 396.398 28.9043C396.812 29.1074 397.168 29.3965 397.465 29.7715C397.77 30.1387 398.008 30.5918 398.18 31.1309C398.352 31.6621 398.438 32.2754 398.438 32.9707C398.438 33.666 398.352 34.2832 398.18 34.8223C398.008 35.3613 397.77 35.8184 397.465 36.1934C397.168 36.5605 396.816 36.8457 396.41 37.0488C396.004 37.2441 395.559 37.3574 395.074 37.3887V36.2285C395.34 36.1973 395.59 36.1152 395.824 35.9824C396.059 35.8418 396.262 35.6426 396.434 35.3848C396.605 35.1191 396.742 34.791 396.844 34.4004C396.945 34.002 397 33.5254 397.008 32.9707C397 32.416 396.945 31.9434 396.844 31.5527C396.742 31.1543 396.602 30.8262 396.422 30.5684C396.25 30.3027 396.047 30.1035 395.812 29.9707C395.578 29.8301 395.332 29.748 395.074 29.7246V28.5645Z" fill="black"/>
<path d="M20.2656 28.6934V37.3301H18.8594V33.4395H15.6016V32.4785H18.8594V28.6934H20.2656ZM13.6914 28.6934H15.1211V37.3301H13.6914V28.6934Z" fill="black"/>
<path d="M28.5391 28.6934V29.6543H25.9609V37.3301H24.543V29.6543H21.9648V28.6934H28.5391Z" fill="black"/>
<path d="M31.5273 32.8301C31.5273 33.4316 31.5664 33.9434 31.6445 34.3652C31.7227 34.7793 31.8359 35.123 31.9844 35.3965C32.1328 35.6621 32.3086 35.8613 32.5117 35.9941C32.7227 36.127 32.957 36.2051 33.2148 36.2285V37.3887C32.7383 37.3574 32.3047 37.2441 31.9141 37.0488C31.5312 36.8457 31.207 36.5605 30.9414 36.1934C30.6758 35.8184 30.4688 35.3613 30.3203 34.8223C30.1719 34.2832 30.0977 33.666 30.0977 32.9707V28.6934H31.5273V32.8301ZM36.8125 28.6934V32.9707C36.8125 33.666 36.7383 34.2832 36.5898 34.8223C36.4414 35.3613 36.2305 35.8184 35.957 36.1934C35.6914 36.5605 35.3672 36.8457 34.9844 37.0488C34.6016 37.2441 34.1719 37.3574 33.6953 37.3887V36.2285C33.9531 36.1973 34.1836 36.1191 34.3867 35.9941C34.5977 35.8613 34.7773 35.6621 34.9258 35.3965C35.0742 35.1309 35.1875 34.791 35.2656 34.377C35.3516 33.9551 35.3945 33.4395 35.3945 32.8301V28.6934H36.8125Z" fill="black"/>
<path d="M44.0312 31.2598C44.0312 31.5645 43.9648 31.8809 43.832 32.209C43.6992 32.5293 43.5234 32.8496 43.3047 33.1699C43.0859 33.4824 42.8438 33.7871 42.5781 34.084C42.3203 34.3809 42.0586 34.6621 41.793 34.9277C41.5352 35.1934 41.2891 35.4355 41.0547 35.6543C40.8281 35.8652 40.6406 36.0449 40.4922 36.1934H44.1602V37.3301H38.793V36.0176C38.9336 35.8926 39.1289 35.7246 39.3789 35.5137C39.6289 35.2949 39.8984 35.0527 40.1875 34.7871C40.4766 34.5215 40.7656 34.2402 41.0547 33.9434C41.3438 33.6387 41.6055 33.334 41.8398 33.0293C42.082 32.7168 42.2773 32.4121 42.4258 32.1152C42.582 31.8184 42.6602 31.5371 42.6602 31.2715C42.6602 30.998 42.6094 30.7715 42.5078 30.5918C42.4141 30.4043 42.293 30.252 42.1445 30.1348C41.9961 30.0176 41.832 29.9355 41.6523 29.8887C41.4805 29.8418 41.3164 29.8184 41.1602 29.8184C40.8555 29.8184 40.6016 29.8301 40.3984 29.8535C40.2031 29.8691 40.0312 29.8965 39.8828 29.9355C39.7344 29.9668 39.6016 30.0137 39.4844 30.0762C39.3672 30.1387 39.2422 30.209 39.1094 30.2871L38.6992 29.4199C38.8398 29.2949 39.0117 29.1816 39.2148 29.0801C39.4258 28.9785 39.6406 28.8965 39.8594 28.834C40.0859 28.7715 40.3086 28.7246 40.5273 28.6934C40.7461 28.6543 40.9492 28.6348 41.1367 28.6348C41.6445 28.6348 42.0781 28.7168 42.4375 28.8809C42.8047 29.0449 43.1055 29.2559 43.3398 29.5137C43.5742 29.7637 43.7461 30.0449 43.8555 30.3574C43.9727 30.6699 44.0312 30.9707 44.0312 31.2598Z" fill="black"/>
<path d="M48.9297 37.3301H47.5V30.709L46.3164 31.8926L45.3086 30.8848L47.5 28.6934H48.9297V37.3301Z" fill="black"/>
<path d="M51.0391 28.6934H52.4453V37.3301H51.0391V28.6934ZM53.6406 28.6934C54.3672 28.6934 55.0039 28.8105 55.5508 29.0449C56.1055 29.2715 56.5625 29.5762 56.9219 29.959C57.2891 30.3418 57.5625 30.7793 57.7422 31.2715C57.9219 31.7559 58.0117 32.2559 58.0117 32.7715C58.0117 33.4824 57.9336 34.0918 57.7773 34.5996C57.6289 35.0996 57.4375 35.5215 57.2031 35.8652C56.9688 36.2012 56.7031 36.4668 56.4062 36.6621C56.1172 36.8574 55.8359 37.0059 55.5625 37.1074C55.2891 37.2012 55.0391 37.2637 54.8125 37.2949C54.5859 37.3184 54.418 37.3301 54.3086 37.3301H52.9258V36.2988H53.8398C54.793 36.2988 55.4805 35.9941 55.9023 35.3848C56.3242 34.7754 56.5352 33.8926 56.5352 32.7363C56.5352 32.377 56.4922 32.0215 56.4062 31.6699C56.3203 31.3184 56.1523 31.002 55.9023 30.7207C55.6602 30.4316 55.3281 30.2012 54.9062 30.0293C54.4844 29.8496 53.9375 29.7598 53.2656 29.7598H52.9258V28.6934H53.6406Z" fill="black"/>
<path d="M50.3398 360.33V367.75L53.9199 371.33L49.5898 375.66L45.2598 371.33L48.8398 367.75V360.33H50.3398ZM363.34 250.33V257.75L366.92 261.33L362.59 265.66L358.26 261.33L361.84 257.75V250.33H363.34ZM84.3398 249.33V256.75L87.9199 260.33L83.5898 264.66L79.2598 260.33L82.8398 256.75V249.33H84.3398ZM367.59 121.33C369.799 121.33 371.59 123.121 371.59 125.33C371.59 127.539 369.799 129.33 367.59 129.33C365.637 129.33 364.012 127.931 363.661 126.08H61.3398V220.4C63.1905 220.751 64.5898 222.377 64.5898 224.33C64.5898 226.539 62.799 228.33 60.5898 228.33C58.3807 228.33 56.5898 226.539 56.5898 224.33C56.5898 222.377 57.9892 220.751 59.8398 220.4V124.58H363.661C364.012 122.73 365.637 121.33 367.59 121.33ZM387.34 112.33V119.75L390.92 123.33L386.59 127.66L382.26 123.33L385.84 119.75V112.33H387.34ZM18.9199 4.33008L15.3398 7.91016V20.3301H13.8398V7.91016L10.2598 4.33008L14.5898 0L18.9199 4.33008ZM152.92 4.33008L149.34 7.91016V20.3301H147.84V7.91016L144.26 4.33008L148.59 0L152.92 4.33008ZM272.92 4.33008L269.34 7.91016V20.3301H267.84V7.91016L264.26 4.33008L268.59 0L272.92 4.33008ZM380.92 4.33008L377.34 7.91016V20.3301H375.84V7.91016L372.26 4.33008L376.59 0L380.92 4.33008Z" fill="black"/>
</svg>
