<svg width="489" height="338" viewBox="0 0 489 338" fill="none" xmlns="http://www.w3.org/2000/svg">
<path d="M35.2891 153.982C35.0482 153.982 34.8301 154.028 34.6348 154.119C34.4395 154.21 34.2734 154.367 34.1367 154.588C34 154.803 33.8926 155.083 33.8145 155.428C33.7428 155.773 33.7038 156.196 33.6973 156.697C33.7038 157.094 33.7298 157.446 33.7754 157.752C33.821 158.058 33.8893 158.318 33.9805 158.533L33.4434 159.676C33.1439 159.37 32.9128 158.973 32.75 158.484C32.5872 157.99 32.5059 157.394 32.5059 156.697C32.5059 156.092 32.5677 155.561 32.6914 155.105C32.8216 154.643 33.0039 154.259 33.2383 153.953C33.4792 153.647 33.7689 153.416 34.1074 153.26C34.4525 153.097 34.8366 153.016 35.2598 153.016C35.709 153.016 36.1029 153.1 36.4414 153.27L36.0117 154.188C35.7969 154.051 35.556 153.982 35.2891 153.982ZM37.0469 153.689C37.3659 153.989 37.6068 154.389 37.7695 154.891C37.9388 155.392 38.0234 155.994 38.0234 156.697C38.0234 157.303 37.9583 157.837 37.8281 158.299C37.7044 158.761 37.5221 159.145 37.2812 159.451C37.0404 159.757 36.7507 159.988 36.4121 160.145C36.0736 160.301 35.6895 160.379 35.2598 160.379C34.7975 160.379 34.3874 160.288 34.0293 160.105L34.4688 159.178C34.6706 159.34 34.9245 159.422 35.2305 159.422C35.4714 159.422 35.6895 159.376 35.8848 159.285C36.0866 159.188 36.2559 159.031 36.3926 158.816C36.5293 158.602 36.6335 158.322 36.7051 157.977C36.7832 157.625 36.8255 157.199 36.832 156.697C36.8255 156.287 36.7962 155.929 36.7441 155.623C36.6921 155.317 36.6172 155.057 36.5195 154.842C36.513 154.835 36.5098 154.829 36.5098 154.822L37.0469 153.689Z" fill="black"/>
<path d="M28.8535 155.857C29.1921 155.857 29.4948 155.919 29.7617 156.043C30.0352 156.16 30.2663 156.32 30.4551 156.521C30.6439 156.723 30.7871 156.951 30.8848 157.205C30.9824 157.459 31.0312 157.723 31.0312 157.996C31.0312 158.53 30.9434 158.956 30.7676 159.275C30.5918 159.588 30.3737 159.829 30.1133 159.998C29.8594 160.161 29.5924 160.265 29.3125 160.311C29.0326 160.356 28.7917 160.379 28.5898 160.379C28.3685 160.379 28.1569 160.363 27.9551 160.33C27.7533 160.291 27.5677 160.245 27.3984 160.193C27.2357 160.135 27.0924 160.079 26.9688 160.027C26.8451 159.969 26.7507 159.923 26.6855 159.891V158.914C26.7767 158.973 26.8906 159.038 27.0273 159.109C27.1706 159.174 27.3203 159.24 27.4766 159.305C27.6328 159.363 27.7956 159.412 27.9648 159.451C28.1406 159.49 28.3034 159.51 28.4531 159.51C28.9349 159.51 29.3125 159.386 29.5859 159.139C29.8594 158.891 29.9961 158.51 29.9961 157.996C29.9961 157.625 29.8757 157.332 29.6348 157.117C29.4004 156.902 29.0911 156.795 28.707 156.795C28.5833 156.795 28.4596 156.805 28.3359 156.824C28.2122 156.837 28.0951 156.86 27.9844 156.893L28.1016 155.926C28.2318 155.9 28.3685 155.883 28.5117 155.877C28.6615 155.864 28.7754 155.857 28.8535 155.857ZM27.5547 157.146H26.6367C26.6367 157.094 26.6432 156.997 26.6562 156.854C26.6693 156.71 26.6855 156.541 26.7051 156.346C26.7246 156.144 26.7474 155.926 26.7734 155.691C26.7995 155.457 26.8255 155.219 26.8516 154.979C26.9167 154.419 26.9915 153.803 27.0762 153.133H30.6406V154.09H27.9551C27.89 154.572 27.8379 154.946 27.7988 155.213C27.7598 155.48 27.7305 155.678 27.7109 155.809C27.6979 155.939 27.6882 156.02 27.6816 156.053C27.6816 156.079 27.6816 156.095 27.6816 156.102L27.6035 156.756L27.5547 157.146Z" fill="black"/>
<path d="M21.5684 160.33L24.0684 154.09H20.9336V153.133H25.4551L22.6621 160.33H21.5684Z" fill="black"/>
<path d="M19.498 160.33H18.3066V154.812L17.3203 155.799L16.4805 154.959L18.3066 153.133H19.498V160.33Z" fill="black"/>
<path d="M15.2793 153.133V160.33H14.1074V157.088H11.3926V156.287H14.1074V153.133H15.2793ZM9.80078 153.133H10.9922V160.33H9.80078V153.133Z" fill="black"/>
<path d="M6.66602 156.541C6.81576 156.561 6.97526 156.609 7.14453 156.688C7.3138 156.766 7.47005 156.876 7.61328 157.02C7.76302 157.163 7.88672 157.339 7.98438 157.547C8.08203 157.749 8.13086 157.983 8.13086 158.25C8.13086 158.576 8.08203 158.855 7.98438 159.09C7.88672 159.324 7.76302 159.52 7.61328 159.676C7.47005 159.826 7.31055 159.946 7.13477 160.037C6.96549 160.122 6.79948 160.187 6.63672 160.232C6.48047 160.278 6.34049 160.307 6.2168 160.32C6.0931 160.327 6.01172 160.33 5.97266 160.33H4.83984V159.471H5.9043C6.24935 159.471 6.51953 159.36 6.71484 159.139C6.91016 158.917 7.00781 158.621 7.00781 158.25C7.00781 157.898 6.9069 157.602 6.70508 157.361C6.50326 157.12 6.20703 157 5.81641 157H4.83984V156.209H5.30859C5.45182 156.209 5.59831 156.206 5.74805 156.199C5.89779 156.193 6.03776 156.157 6.16797 156.092C6.29818 156.027 6.40234 155.916 6.48047 155.76C6.5651 155.604 6.60742 155.379 6.60742 155.086C6.60742 154.969 6.59115 154.848 6.55859 154.725C6.52604 154.594 6.46094 154.477 6.36328 154.373C6.26562 154.269 6.12565 154.184 5.94336 154.119C5.76107 154.054 5.52018 154.021 5.2207 154.021H4.83984V153.133H5.33789C5.64388 153.133 5.9401 153.169 6.22656 153.24C6.51302 153.312 6.76693 153.426 6.98828 153.582C7.20964 153.738 7.38542 153.943 7.51562 154.197C7.64583 154.445 7.71094 154.741 7.71094 155.086C7.71094 155.288 7.67839 155.473 7.61328 155.643C7.54818 155.805 7.4668 155.949 7.36914 156.072C7.27148 156.196 7.15755 156.3 7.02734 156.385C6.90365 156.463 6.7832 156.515 6.66602 156.541ZM3.26758 153.133H4.43945V160.33H3.26758V153.133Z" fill="black"/>
<path d="M4.33008 198.66L1.57361e-06 194.33L3.58008 190.75L3.58008 163.33L5.08008 163.33L5.08008 190.75L8.66016 194.33L4.33008 198.66Z" fill="black"/>
<path d="M96.3613 156.541C96.5111 156.561 96.6641 156.609 96.8203 156.688C96.9831 156.766 97.1328 156.876 97.2695 157.02C97.4062 157.163 97.5202 157.339 97.6113 157.547C97.7025 157.749 97.748 157.983 97.748 158.25C97.748 158.576 97.6992 158.859 97.6016 159.1C97.5104 159.334 97.3932 159.529 97.25 159.686C97.1068 159.842 96.944 159.969 96.7617 160.066C96.5859 160.158 96.4134 160.226 96.2441 160.271C96.0749 160.317 95.9186 160.346 95.7754 160.359C95.6387 160.372 95.5312 160.379 95.4531 160.379C94.9062 160.379 94.4733 160.343 94.1543 160.271C93.8418 160.193 93.6237 160.115 93.5 160.037L93.7637 159.197C93.8223 159.23 93.8776 159.266 93.9297 159.305C93.9818 159.344 94.0566 159.383 94.1543 159.422C94.252 159.454 94.3887 159.484 94.5645 159.51C94.7402 159.529 94.9811 159.539 95.2871 159.539C95.7363 159.539 96.0716 159.419 96.293 159.178C96.5143 158.93 96.625 158.621 96.625 158.25C96.625 157.898 96.5241 157.602 96.3223 157.361C96.1204 157.12 95.8242 157 95.4336 157H94.4375H94.4473L94.4375 156.209H95.1016C95.2448 156.209 95.388 156.206 95.5312 156.199C95.681 156.193 95.821 156.157 95.9512 156.092C96.0814 156.027 96.1888 155.916 96.2734 155.76C96.3581 155.604 96.4004 155.379 96.4004 155.086C96.4004 154.969 96.3906 154.845 96.3711 154.715C96.3516 154.585 96.2962 154.464 96.2051 154.354C96.1204 154.243 95.9935 154.155 95.8242 154.09C95.6549 154.018 95.4206 153.982 95.1211 153.982C94.8216 153.982 94.5807 154.012 94.3984 154.07C94.2227 154.122 94.0892 154.165 93.998 154.197L93.6562 153.318C93.8125 153.273 94.0046 153.224 94.2324 153.172C94.4668 153.12 94.8021 153.094 95.2383 153.094C95.5443 153.094 95.834 153.133 96.1074 153.211C96.3809 153.283 96.6185 153.4 96.8203 153.562C97.0286 153.725 97.1914 153.934 97.3086 154.188C97.4323 154.441 97.4941 154.741 97.4941 155.086C97.4941 155.288 97.4583 155.473 97.3867 155.643C97.3151 155.805 97.224 155.949 97.1133 156.072C97.0026 156.196 96.8789 156.3 96.7422 156.385C96.6055 156.463 96.4785 156.515 96.3613 156.541Z" fill="black"/>
<path d="M85.2285 153.133H86.4199L88.3535 157.576V159.383H88.041L86.4199 155.379V160.33H85.2285V153.133ZM90.6875 153.133H91.8789V160.33H90.6875V155.379L89.0762 159.383H88.7539V157.596L90.6875 153.133Z" fill="black"/>
<path d="M93.3711 82.1328H94.5625L96.4961 86.5762V88.3828H96.1836L94.5625 84.3789V89.3301H93.3711V82.1328ZM98.8301 82.1328H100.021V89.3301H98.8301V84.3789L97.2188 88.3828H96.8965V86.5957L98.8301 82.1328Z" fill="black"/>
<path d="M84.9238 82.1328H86.1152L88.0488 86.5762V88.3828H87.7363L86.1152 84.3789V89.3301H84.9238V82.1328ZM90.3828 82.1328H91.5742V89.3301H90.3828V84.3789L88.7715 88.3828H88.4492V86.5957L90.3828 82.1328Z" fill="black"/>
<path d="M81.0957 84.8574C81.4342 84.8574 81.737 84.9193 82.0039 85.043C82.2773 85.1602 82.5085 85.3197 82.6973 85.5215C82.8861 85.7233 83.0293 85.9512 83.127 86.2051C83.2246 86.459 83.2734 86.7227 83.2734 86.9961C83.2734 87.5299 83.1855 87.9564 83.0098 88.2754C82.834 88.5879 82.6159 88.8288 82.3555 88.998C82.1016 89.1608 81.8346 89.265 81.5547 89.3105C81.2747 89.3561 81.0339 89.3789 80.832 89.3789C80.6107 89.3789 80.3991 89.3626 80.1973 89.3301C79.9954 89.291 79.8099 89.2454 79.6406 89.1934C79.4779 89.1348 79.3346 89.0794 79.2109 89.0273C79.0872 88.9688 78.9928 88.9232 78.9277 88.8906V87.9141C79.0189 87.9727 79.1328 88.0378 79.2695 88.1094C79.4128 88.1745 79.5625 88.2396 79.7188 88.3047C79.875 88.3633 80.0378 88.4121 80.207 88.4512C80.3828 88.4902 80.5456 88.5098 80.6953 88.5098C81.1771 88.5098 81.5547 88.3861 81.8281 88.1387C82.1016 87.8913 82.2383 87.5104 82.2383 86.9961C82.2383 86.625 82.1178 86.332 81.877 86.1172C81.6426 85.9023 81.3333 85.7949 80.9492 85.7949C80.8255 85.7949 80.7018 85.8047 80.5781 85.8242C80.4544 85.8372 80.3372 85.86 80.2266 85.8926L80.3438 84.9258C80.474 84.8997 80.6107 84.8835 80.7539 84.877C80.9036 84.8639 81.0176 84.8574 81.0957 84.8574ZM79.7969 86.1465H78.8789C78.8789 86.0944 78.8854 85.9967 78.8984 85.8535C78.9115 85.7103 78.9277 85.541 78.9473 85.3457C78.9668 85.1439 78.9896 84.9258 79.0156 84.6914C79.0417 84.457 79.0677 84.2194 79.0938 83.9785C79.1589 83.4186 79.2337 82.8034 79.3184 82.1328H82.8828V83.0898H80.1973C80.1322 83.5716 80.0801 83.946 80.041 84.2129C80.002 84.4798 79.9727 84.6784 79.9531 84.8086C79.9401 84.9388 79.9303 85.0202 79.9238 85.0527C79.9238 85.0788 79.9238 85.0951 79.9238 85.1016L79.8457 85.7559L79.7969 86.1465Z" fill="black"/>
<path d="M77.8145 88.666C77.8145 88.8613 77.7461 89.0273 77.6094 89.1641C77.4727 89.3008 77.3066 89.3691 77.1113 89.3691C76.916 89.3691 76.75 89.3008 76.6133 89.1641C76.4831 89.0273 76.418 88.8613 76.418 88.666C76.418 88.4707 76.4863 88.3079 76.623 88.1777C76.7598 88.041 76.9225 87.9727 77.1113 87.9727C77.3066 87.9727 77.4727 88.041 77.6094 88.1777C77.7461 88.3079 77.8145 88.4707 77.8145 88.666Z" fill="black"/>
<path d="M74.0352 85.541C74.1849 85.5605 74.3379 85.6094 74.4941 85.6875C74.6569 85.7656 74.8066 85.8763 74.9434 86.0195C75.0801 86.1628 75.194 86.3385 75.2852 86.5469C75.3763 86.7487 75.4219 86.9831 75.4219 87.25C75.4219 87.5755 75.373 87.8587 75.2754 88.0996C75.1842 88.334 75.0671 88.5293 74.9238 88.6855C74.7806 88.8418 74.6178 88.9688 74.4355 89.0664C74.2598 89.1576 74.0872 89.2259 73.918 89.2715C73.7487 89.3171 73.5924 89.3464 73.4492 89.3594C73.3125 89.3724 73.2051 89.3789 73.127 89.3789C72.5801 89.3789 72.1471 89.3431 71.8281 89.2715C71.5156 89.1934 71.2975 89.1152 71.1738 89.0371L71.4375 88.1973C71.4961 88.2298 71.5514 88.2656 71.6035 88.3047C71.6556 88.3438 71.7305 88.3828 71.8281 88.4219C71.9258 88.4544 72.0625 88.4837 72.2383 88.5098C72.4141 88.5293 72.6549 88.5391 72.9609 88.5391C73.4102 88.5391 73.7454 88.4186 73.9668 88.1777C74.1882 87.9303 74.2988 87.6211 74.2988 87.25C74.2988 86.8984 74.1979 86.6022 73.9961 86.3613C73.7943 86.1204 73.498 86 73.1074 86H72.1113H72.1211L72.1113 85.209H72.7754C72.9186 85.209 73.0618 85.2057 73.2051 85.1992C73.3548 85.1927 73.4948 85.1569 73.625 85.0918C73.7552 85.0267 73.8626 84.916 73.9473 84.7598C74.0319 84.6035 74.0742 84.3789 74.0742 84.0859C74.0742 83.9688 74.0645 83.8451 74.0449 83.7148C74.0254 83.5846 73.9701 83.4642 73.8789 83.3535C73.7943 83.2428 73.6673 83.1549 73.498 83.0898C73.3288 83.0182 73.0944 82.9824 72.7949 82.9824C72.4954 82.9824 72.2546 83.0117 72.0723 83.0703C71.8965 83.1224 71.763 83.1647 71.6719 83.1973L71.3301 82.3184C71.4863 82.2728 71.6784 82.224 71.9062 82.1719C72.1406 82.1198 72.4759 82.0938 72.9121 82.0938C73.2181 82.0938 73.5078 82.1328 73.7812 82.2109C74.0547 82.2826 74.2923 82.3997 74.4941 82.5625C74.7025 82.7253 74.8652 82.9336 74.9824 83.1875C75.1061 83.4414 75.168 83.7409 75.168 84.0859C75.168 84.2878 75.1322 84.4733 75.0605 84.6426C74.9889 84.8053 74.8978 84.9486 74.7871 85.0723C74.6764 85.196 74.5527 85.3001 74.416 85.3848C74.2793 85.4629 74.1523 85.515 74.0352 85.541Z" fill="black"/>
<path d="M69.6309 89.3301H68.4395V83.8125L67.4531 84.7988L66.6133 83.959L68.4395 82.1328H69.6309V89.3301Z" fill="black"/>
<path d="M237.371 46.1328H238.562L240.496 50.5762V52.3828H240.184L238.562 48.3789V53.3301H237.371V46.1328ZM242.83 46.1328H244.021V53.3301H242.83V48.3789L241.219 52.3828H240.896V50.5957L242.83 46.1328Z" fill="black"/>
<path d="M228.924 46.1328H230.115L232.049 50.5762V52.3828H231.736L230.115 48.3789V53.3301H228.924V46.1328ZM234.383 46.1328H235.574V53.3301H234.383V48.3789L232.771 52.3828H232.449V50.5957L234.383 46.1328Z" fill="black"/>
<path d="M227.205 53.3301H226.014V47.8125L225.027 48.7988L224.188 47.959L226.014 46.1328H227.205V53.3301Z" fill="black"/>
<path d="M223.602 52.666C223.602 52.8613 223.533 53.0273 223.396 53.1641C223.26 53.3008 223.094 53.3691 222.898 53.3691C222.703 53.3691 222.537 53.3008 222.4 53.1641C222.27 53.0273 222.205 52.8613 222.205 52.666C222.205 52.4707 222.273 52.3079 222.41 52.1777C222.547 52.041 222.71 51.9727 222.898 51.9727C223.094 51.9727 223.26 52.041 223.396 52.1777C223.533 52.3079 223.602 52.4707 223.602 52.666Z" fill="black"/>
<path d="M218.953 48.8574C219.292 48.8574 219.594 48.9193 219.861 49.043C220.135 49.1602 220.366 49.3197 220.555 49.5215C220.743 49.7233 220.887 49.9512 220.984 50.2051C221.082 50.459 221.131 50.7227 221.131 50.9961C221.131 51.5299 221.043 51.9564 220.867 52.2754C220.691 52.5879 220.473 52.8288 220.213 52.998C219.959 53.1608 219.692 53.265 219.412 53.3105C219.132 53.3561 218.891 53.3789 218.689 53.3789C218.468 53.3789 218.257 53.3626 218.055 53.3301C217.853 53.291 217.667 53.2454 217.498 53.1934C217.335 53.1348 217.192 53.0794 217.068 53.0273C216.945 52.9688 216.85 52.9232 216.785 52.8906V51.9141C216.876 51.9727 216.99 52.0378 217.127 52.1094C217.27 52.1745 217.42 52.2396 217.576 52.3047C217.732 52.3633 217.895 52.4121 218.064 52.4512C218.24 52.4902 218.403 52.5098 218.553 52.5098C219.035 52.5098 219.412 52.3861 219.686 52.1387C219.959 51.8913 220.096 51.5104 220.096 50.9961C220.096 50.625 219.975 50.332 219.734 50.1172C219.5 49.9023 219.191 49.7949 218.807 49.7949C218.683 49.7949 218.559 49.8047 218.436 49.8242C218.312 49.8372 218.195 49.86 218.084 49.8926L218.201 48.9258C218.331 48.8997 218.468 48.8835 218.611 48.877C218.761 48.8639 218.875 48.8574 218.953 48.8574ZM217.654 50.1465H216.736C216.736 50.0944 216.743 49.9967 216.756 49.8535C216.769 49.7103 216.785 49.541 216.805 49.3457C216.824 49.1439 216.847 48.9258 216.873 48.6914C216.899 48.457 216.925 48.2194 216.951 47.9785C217.016 47.4186 217.091 46.8034 217.176 46.1328H220.74V47.0898H218.055C217.99 47.5716 217.938 47.946 217.898 48.2129C217.859 48.4798 217.83 48.6784 217.811 48.8086C217.798 48.9388 217.788 49.0202 217.781 49.0527C217.781 49.0788 217.781 49.0951 217.781 49.1016L217.703 49.7559L217.654 50.1465Z" fill="black"/>
<path d="M213.914 49.541C214.064 49.5605 214.217 49.6094 214.373 49.6875C214.536 49.7656 214.686 49.8763 214.822 50.0195C214.959 50.1628 215.073 50.3385 215.164 50.5469C215.255 50.7487 215.301 50.9831 215.301 51.25C215.301 51.5755 215.252 51.8587 215.154 52.0996C215.063 52.334 214.946 52.5293 214.803 52.6855C214.66 52.8418 214.497 52.9688 214.314 53.0664C214.139 53.1576 213.966 53.2259 213.797 53.2715C213.628 53.3171 213.471 53.3464 213.328 53.3594C213.191 53.3724 213.084 53.3789 213.006 53.3789C212.459 53.3789 212.026 53.3431 211.707 53.2715C211.395 53.1934 211.176 53.1152 211.053 53.0371L211.316 52.1973C211.375 52.2298 211.43 52.2656 211.482 52.3047C211.535 52.3438 211.609 52.3828 211.707 52.4219C211.805 52.4544 211.941 52.4837 212.117 52.5098C212.293 52.5293 212.534 52.5391 212.84 52.5391C213.289 52.5391 213.624 52.4186 213.846 52.1777C214.067 51.9303 214.178 51.6211 214.178 51.25C214.178 50.8984 214.077 50.6022 213.875 50.3613C213.673 50.1204 213.377 50 212.986 50H211.99H212L211.99 49.209H212.654C212.798 49.209 212.941 49.2057 213.084 49.1992C213.234 49.1927 213.374 49.1569 213.504 49.0918C213.634 49.0267 213.742 48.916 213.826 48.7598C213.911 48.6035 213.953 48.3789 213.953 48.0859C213.953 47.9688 213.943 47.8451 213.924 47.7148C213.904 47.5846 213.849 47.4642 213.758 47.3535C213.673 47.2428 213.546 47.1549 213.377 47.0898C213.208 47.0182 212.973 46.9824 212.674 46.9824C212.374 46.9824 212.133 47.0117 211.951 47.0703C211.775 47.1224 211.642 47.1647 211.551 47.1973L211.209 46.3184C211.365 46.2728 211.557 46.224 211.785 46.1719C212.02 46.1198 212.355 46.0938 212.791 46.0938C213.097 46.0938 213.387 46.1328 213.66 46.2109C213.934 46.2826 214.171 46.3997 214.373 46.5625C214.581 46.7253 214.744 46.9336 214.861 47.1875C214.985 47.4414 215.047 47.7409 215.047 48.0859C215.047 48.2878 215.011 48.4733 214.939 48.6426C214.868 48.8053 214.777 48.9486 214.666 49.0723C214.555 49.196 214.432 49.3001 214.295 49.3848C214.158 49.4629 214.031 49.515 213.914 49.541Z" fill="black"/>
<path d="M86.3301 178.66L82 174.33L85.5801 170.75L85.5801 163.33L87.0801 163.33L87.0801 170.75L90.6602 174.33L86.3301 178.66Z" fill="black"/>
<path d="M67.3301 138.33C67.3301 140.539 65.5392 142.33 63.3301 142.33C61.1209 142.33 59.3301 140.539 59.3301 138.33C59.3301 136.377 60.7295 134.753 62.5801 134.401L62.5801 39.3301L64.0801 39.3301L64.0801 134.401C65.9306 134.753 67.3301 136.377 67.3301 138.33Z" fill="black"/>
<path d="M370.33 35.3301C372.539 35.3301 374.33 37.1209 374.33 39.3301C374.33 41.5392 372.539 43.3301 370.33 43.3301C368.377 43.3301 366.753 41.9306 366.401 40.0801H67.2588C66.9077 41.9306 65.2828 43.3301 63.3301 43.3301C61.1209 43.3301 59.3301 41.5392 59.3301 39.3301C59.3301 37.1209 61.1209 35.3301 63.3301 35.3301C65.2828 35.3301 66.9077 36.7295 67.2588 38.5801H366.401C366.753 36.7295 368.377 35.3301 370.33 35.3301Z" fill="black"/>
<path d="M70.2715 264.133V264.934H68.123V271.33H66.9414V264.934H64.793V264.133H70.2715Z" fill="black"/>
<path d="M63.6797 271.33H62.4688L60.6035 265.939L58.7188 271.33H57.498L60.0176 264.143H61.1797L63.6797 271.33ZM61.248 269.045L61.5312 269.836H59.666L59.9395 269.045H61.248Z" fill="black"/>
<path d="M54.666 267.541C54.8158 267.561 54.9753 267.609 55.1445 267.688C55.3138 267.766 55.4701 267.876 55.6133 268.02C55.763 268.163 55.8867 268.339 55.9844 268.547C56.082 268.749 56.1309 268.983 56.1309 269.25C56.1309 269.576 56.082 269.855 55.9844 270.09C55.8867 270.324 55.763 270.52 55.6133 270.676C55.4701 270.826 55.3105 270.946 55.1348 271.037C54.9655 271.122 54.7995 271.187 54.6367 271.232C54.4805 271.278 54.3405 271.307 54.2168 271.32C54.0931 271.327 54.0117 271.33 53.9727 271.33H52.8398V270.471H53.9043C54.2493 270.471 54.5195 270.36 54.7148 270.139C54.9102 269.917 55.0078 269.621 55.0078 269.25C55.0078 268.898 54.9069 268.602 54.7051 268.361C54.5033 268.12 54.207 268 53.8164 268H52.8398V267.209H53.3086C53.4518 267.209 53.5983 267.206 53.748 267.199C53.8978 267.193 54.0378 267.157 54.168 267.092C54.2982 267.027 54.4023 266.916 54.4805 266.76C54.5651 266.604 54.6074 266.379 54.6074 266.086C54.6074 265.969 54.5911 265.848 54.5586 265.725C54.526 265.594 54.4609 265.477 54.3633 265.373C54.2656 265.269 54.1257 265.184 53.9434 265.119C53.7611 265.054 53.5202 265.021 53.2207 265.021H52.8398V264.133H53.3379C53.6439 264.133 53.9401 264.169 54.2266 264.24C54.513 264.312 54.7669 264.426 54.9883 264.582C55.2096 264.738 55.3854 264.943 55.5156 265.197C55.6458 265.445 55.7109 265.741 55.7109 266.086C55.7109 266.288 55.6784 266.473 55.6133 266.643C55.5482 266.805 55.4668 266.949 55.3691 267.072C55.2715 267.196 55.1576 267.3 55.0273 267.385C54.9036 267.463 54.7832 267.515 54.666 267.541ZM51.2676 264.133H52.4395V271.33H51.2676V264.133Z" fill="black"/>
<path d="M6.27539 315.98V316.967H3.16992V315.98H6.27539Z" fill="black"/>
<path d="M8.24805 335.074H5.99219V337.33H4.99609V335.074H2.74023V334.078H4.99609V331.822H5.99219V334.078H8.24805V335.074Z" fill="black"/>
<path d="M52.3301 289.66L48 285.33L51.5801 281.75L51.5801 274.33L53.0801 274.33L53.0801 281.75L56.6602 285.33L52.3301 289.66Z" fill="black"/>
<path d="M399.361 19.541C399.511 19.5605 399.664 19.6094 399.82 19.6875C399.983 19.7656 400.133 19.8763 400.27 20.0195C400.406 20.1628 400.52 20.3385 400.611 20.5469C400.702 20.7487 400.748 20.9831 400.748 21.25C400.748 21.5755 400.699 21.8587 400.602 22.0996C400.51 22.334 400.393 22.5293 400.25 22.6855C400.107 22.8418 399.944 22.9688 399.762 23.0664C399.586 23.1576 399.413 23.2259 399.244 23.2715C399.075 23.3171 398.919 23.3464 398.775 23.3594C398.639 23.3724 398.531 23.3789 398.453 23.3789C397.906 23.3789 397.473 23.3431 397.154 23.2715C396.842 23.1934 396.624 23.1152 396.5 23.0371L396.764 22.1973C396.822 22.2298 396.878 22.2656 396.93 22.3047C396.982 22.3438 397.057 22.3828 397.154 22.4219C397.252 22.4544 397.389 22.4837 397.564 22.5098C397.74 22.5293 397.981 22.5391 398.287 22.5391C398.736 22.5391 399.072 22.4186 399.293 22.1777C399.514 21.9303 399.625 21.6211 399.625 21.25C399.625 20.8984 399.524 20.6022 399.322 20.3613C399.12 20.1204 398.824 20 398.434 20H397.438H397.447L397.438 19.209H398.102C398.245 19.209 398.388 19.2057 398.531 19.1992C398.681 19.1927 398.821 19.1569 398.951 19.0918C399.081 19.0267 399.189 18.916 399.273 18.7598C399.358 18.6035 399.4 18.3789 399.4 18.0859C399.4 17.9688 399.391 17.8451 399.371 17.7148C399.352 17.5846 399.296 17.4642 399.205 17.3535C399.12 17.2428 398.993 17.1549 398.824 17.0898C398.655 17.0182 398.421 16.9824 398.121 16.9824C397.822 16.9824 397.581 17.0117 397.398 17.0703C397.223 17.1224 397.089 17.1647 396.998 17.1973L396.656 16.3184C396.812 16.2728 397.005 16.224 397.232 16.1719C397.467 16.1198 397.802 16.0938 398.238 16.0938C398.544 16.0938 398.834 16.1328 399.107 16.2109C399.381 16.2826 399.618 16.3997 399.82 16.5625C400.029 16.7253 400.191 16.9336 400.309 17.1875C400.432 17.4414 400.494 17.7409 400.494 18.0859C400.494 18.2878 400.458 18.4733 400.387 18.6426C400.315 18.8053 400.224 18.9486 400.113 19.0723C400.003 19.196 399.879 19.3001 399.742 19.3848C399.605 19.4629 399.479 19.515 399.361 19.541Z" fill="black"/>
<path d="M388.229 16.1328H389.42L391.354 20.5762V22.3828H391.041L389.42 18.3789V23.3301H388.229V16.1328ZM393.688 16.1328H394.879V23.3301H393.688V18.3789L392.076 22.3828H391.754V20.5957L393.688 16.1328Z" fill="black"/>
<path d="M389.33 41.6602L385 37.3301L388.58 33.75L388.58 26.3301L390.08 26.3301L390.08 33.75L393.66 37.3301L389.33 41.6602Z" fill="black"/>
<path d="M364.568 154.133H365.74V161.33H364.568V154.133ZM369.451 161.33H368.211L366.854 158.723C366.834 158.723 366.811 158.726 366.785 158.732C366.766 158.732 366.733 158.732 366.688 158.732C366.642 158.732 366.574 158.732 366.482 158.732C366.398 158.732 366.284 158.732 366.141 158.732V157.873H366.805C366.948 157.873 367.091 157.85 367.234 157.805C367.378 157.753 367.508 157.671 367.625 157.561C367.742 157.45 367.837 157.297 367.908 157.102C367.98 156.9 368.016 156.652 368.016 156.359C368.016 156.242 367.999 156.109 367.967 155.959C367.934 155.803 367.866 155.656 367.762 155.52C367.664 155.376 367.524 155.259 367.342 155.168C367.16 155.07 366.919 155.021 366.619 155.021H366.141V154.133H366.639C366.945 154.133 367.247 154.182 367.547 154.279C367.846 154.377 368.113 154.523 368.348 154.719C368.589 154.914 368.781 155.152 368.924 155.432C369.074 155.705 369.148 156.014 369.148 156.359C369.148 156.88 369.028 157.323 368.787 157.688C368.546 158.052 368.221 158.322 367.811 158.498L369.451 161.33Z" fill="black"/>
<path d="M362.791 161.33H361.6V154.133H362.791V161.33Z" fill="black"/>
<path d="M359.93 154.133V155.08L356.502 160.227L356.307 160.383H359.93V161.33H355.145V160.383L358.572 155.236L358.777 155.08H355.145V154.133H359.93Z" fill="black"/>
<path d="M347.635 157.697C347.635 157.118 347.703 156.607 347.84 156.164C347.983 155.715 348.178 155.337 348.426 155.031C348.68 154.719 348.976 154.481 349.314 154.318C349.66 154.149 350.034 154.051 350.438 154.025V155.002C350.216 155.028 350.008 155.096 349.812 155.207C349.617 155.318 349.448 155.48 349.305 155.695C349.161 155.91 349.048 156.184 348.963 156.516C348.878 156.848 348.833 157.242 348.826 157.697C348.833 158.16 348.878 158.557 348.963 158.889C349.048 159.214 349.161 159.488 349.305 159.709C349.454 159.93 349.627 160.1 349.822 160.217C350.018 160.327 350.223 160.393 350.438 160.412V161.379C350.04 161.353 349.669 161.258 349.324 161.096C348.979 160.926 348.68 160.689 348.426 160.383C348.178 160.07 347.983 159.689 347.84 159.24C347.703 158.791 347.635 158.277 347.635 157.697ZM350.828 154.025C351.225 154.045 351.593 154.139 351.932 154.309C352.277 154.478 352.573 154.719 352.82 155.031C353.074 155.337 353.273 155.715 353.416 156.164C353.559 156.607 353.631 157.118 353.631 157.697C353.631 158.277 353.559 158.791 353.416 159.24C353.273 159.689 353.074 160.07 352.82 160.383C352.573 160.689 352.28 160.926 351.941 161.096C351.603 161.258 351.232 161.353 350.828 161.379V160.412C351.049 160.386 351.258 160.318 351.453 160.207C351.648 160.09 351.818 159.924 351.961 159.709C352.104 159.488 352.218 159.214 352.303 158.889C352.387 158.557 352.433 158.16 352.439 157.697C352.433 157.235 352.387 156.841 352.303 156.516C352.218 156.184 352.101 155.91 351.951 155.695C351.808 155.474 351.639 155.308 351.443 155.197C351.248 155.08 351.043 155.012 350.828 154.992V154.025Z" fill="black"/>
<path d="M345.291 155.52C345.141 155.35 344.982 155.223 344.812 155.139C344.643 155.054 344.461 155.005 344.266 154.992V154.025C344.995 154.058 345.607 154.315 346.102 154.797L345.291 155.52ZM344.266 160.412C344.461 160.393 344.643 160.34 344.812 160.256C344.988 160.171 345.148 160.048 345.291 159.885L346.102 160.598C345.854 160.839 345.577 161.024 345.271 161.154C344.965 161.285 344.63 161.359 344.266 161.379V160.412ZM341.102 157.697C341.102 157.118 341.17 156.607 341.307 156.164C341.45 155.721 341.645 155.347 341.893 155.041C342.14 154.735 342.43 154.497 342.762 154.328C343.1 154.159 343.468 154.058 343.865 154.025V155.002C343.65 155.035 343.449 155.109 343.26 155.227C343.071 155.337 342.905 155.5 342.762 155.715C342.618 155.93 342.505 156.203 342.42 156.535C342.342 156.861 342.299 157.248 342.293 157.697C342.299 158.153 342.342 158.544 342.42 158.869C342.505 159.195 342.618 159.468 342.762 159.689C342.905 159.911 343.071 160.08 343.26 160.197C343.455 160.314 343.657 160.386 343.865 160.412V161.369C343.468 161.343 343.1 161.245 342.762 161.076C342.43 160.907 342.14 160.669 341.893 160.363C341.645 160.057 341.45 159.683 341.307 159.24C341.17 158.791 341.102 158.277 341.102 157.697Z" fill="black"/>
<path d="M365.33 179.66L361 175.33L364.58 171.75L364.58 164.33L366.08 164.33L366.08 171.75L369.66 175.33L365.33 179.66Z" fill="black"/>
<path d="M364.568 154.133H365.74V161.33H364.568V154.133ZM369.451 161.33H368.211L366.854 158.723C366.834 158.723 366.811 158.726 366.785 158.732C366.766 158.732 366.733 158.732 366.688 158.732C366.642 158.732 366.574 158.732 366.482 158.732C366.398 158.732 366.284 158.732 366.141 158.732V157.873H366.805C366.948 157.873 367.091 157.85 367.234 157.805C367.378 157.753 367.508 157.671 367.625 157.561C367.742 157.45 367.837 157.297 367.908 157.102C367.98 156.9 368.016 156.652 368.016 156.359C368.016 156.242 367.999 156.109 367.967 155.959C367.934 155.803 367.866 155.656 367.762 155.52C367.664 155.376 367.524 155.259 367.342 155.168C367.16 155.07 366.919 155.021 366.619 155.021H366.141V154.133H366.639C366.945 154.133 367.247 154.182 367.547 154.279C367.846 154.377 368.113 154.523 368.348 154.719C368.589 154.914 368.781 155.152 368.924 155.432C369.074 155.705 369.148 156.014 369.148 156.359C369.148 156.88 369.028 157.323 368.787 157.688C368.546 158.052 368.221 158.322 367.811 158.498L369.451 161.33Z" fill="black"/>
<path d="M362.791 161.33H361.6V154.133H362.791V161.33Z" fill="black"/>
<path d="M359.93 154.133V155.08L356.502 160.227L356.307 160.383H359.93V161.33H355.145V160.383L358.572 155.236L358.777 155.08H355.145V154.133H359.93Z" fill="black"/>
<path d="M347.635 157.697C347.635 157.118 347.703 156.607 347.84 156.164C347.983 155.715 348.178 155.337 348.426 155.031C348.68 154.719 348.976 154.481 349.314 154.318C349.66 154.149 350.034 154.051 350.438 154.025V155.002C350.216 155.028 350.008 155.096 349.812 155.207C349.617 155.318 349.448 155.48 349.305 155.695C349.161 155.91 349.048 156.184 348.963 156.516C348.878 156.848 348.833 157.242 348.826 157.697C348.833 158.16 348.878 158.557 348.963 158.889C349.048 159.214 349.161 159.488 349.305 159.709C349.454 159.93 349.627 160.1 349.822 160.217C350.018 160.327 350.223 160.393 350.438 160.412V161.379C350.04 161.353 349.669 161.258 349.324 161.096C348.979 160.926 348.68 160.689 348.426 160.383C348.178 160.07 347.983 159.689 347.84 159.24C347.703 158.791 347.635 158.277 347.635 157.697ZM350.828 154.025C351.225 154.045 351.593 154.139 351.932 154.309C352.277 154.478 352.573 154.719 352.82 155.031C353.074 155.337 353.273 155.715 353.416 156.164C353.559 156.607 353.631 157.118 353.631 157.697C353.631 158.277 353.559 158.791 353.416 159.24C353.273 159.689 353.074 160.07 352.82 160.383C352.573 160.689 352.28 160.926 351.941 161.096C351.603 161.258 351.232 161.353 350.828 161.379V160.412C351.049 160.386 351.258 160.318 351.453 160.207C351.648 160.09 351.818 159.924 351.961 159.709C352.104 159.488 352.218 159.214 352.303 158.889C352.387 158.557 352.433 158.16 352.439 157.697C352.433 157.235 352.387 156.841 352.303 156.516C352.218 156.184 352.101 155.91 351.951 155.695C351.808 155.474 351.639 155.308 351.443 155.197C351.248 155.08 351.043 155.012 350.828 154.992V154.025Z" fill="black"/>
<path d="M345.291 155.52C345.141 155.35 344.982 155.223 344.812 155.139C344.643 155.054 344.461 155.005 344.266 154.992V154.025C344.995 154.058 345.607 154.315 346.102 154.797L345.291 155.52ZM344.266 160.412C344.461 160.393 344.643 160.34 344.812 160.256C344.988 160.171 345.148 160.048 345.291 159.885L346.102 160.598C345.854 160.839 345.577 161.024 345.271 161.154C344.965 161.285 344.63 161.359 344.266 161.379V160.412ZM341.102 157.697C341.102 157.118 341.17 156.607 341.307 156.164C341.45 155.721 341.645 155.347 341.893 155.041C342.14 154.735 342.43 154.497 342.762 154.328C343.1 154.159 343.468 154.058 343.865 154.025V155.002C343.65 155.035 343.449 155.109 343.26 155.227C343.071 155.337 342.905 155.5 342.762 155.715C342.618 155.93 342.505 156.203 342.42 156.535C342.342 156.861 342.299 157.248 342.293 157.697C342.299 158.153 342.342 158.544 342.42 158.869C342.505 159.195 342.618 159.468 342.762 159.689C342.905 159.911 343.071 160.08 343.26 160.197C343.455 160.314 343.657 160.386 343.865 160.412V161.369C343.468 161.343 343.1 161.245 342.762 161.076C342.43 160.907 342.14 160.669 341.893 160.363C341.645 160.057 341.45 159.683 341.307 159.24C341.17 158.791 341.102 158.277 341.102 157.697Z" fill="black"/>
<path d="M365.33 179.66L361 175.33L364.58 171.75L364.58 164.33L366.08 164.33L366.08 171.75L369.66 175.33L365.33 179.66Z" fill="black"/>
<path d="M488.055 58.7227H488.807V59.6504H488.055V61.3301H486.863V54.1328H488.055V58.7227ZM483.748 59.6504V58.7227L486.463 54.7188V56.1152L484.793 58.7227H486.463V59.6504H483.748Z" fill="black"/>
<path d="M481.316 57.541C481.466 57.5605 481.619 57.6094 481.775 57.6875C481.938 57.7656 482.088 57.8763 482.225 58.0195C482.361 58.1628 482.475 58.3385 482.566 58.5469C482.658 58.7487 482.703 58.9831 482.703 59.25C482.703 59.5755 482.654 59.8587 482.557 60.0996C482.465 60.334 482.348 60.5293 482.205 60.6855C482.062 60.8418 481.899 60.9688 481.717 61.0664C481.541 61.1576 481.368 61.2259 481.199 61.2715C481.03 61.3171 480.874 61.3464 480.73 61.3594C480.594 61.3724 480.486 61.3789 480.408 61.3789C479.861 61.3789 479.428 61.3431 479.109 61.2715C478.797 61.1934 478.579 61.1152 478.455 61.0371L478.719 60.1973C478.777 60.2298 478.833 60.2656 478.885 60.3047C478.937 60.3438 479.012 60.3828 479.109 60.4219C479.207 60.4544 479.344 60.4837 479.52 60.5098C479.695 60.5293 479.936 60.5391 480.242 60.5391C480.691 60.5391 481.027 60.4186 481.248 60.1777C481.469 59.9303 481.58 59.6211 481.58 59.25C481.58 58.8984 481.479 58.6022 481.277 58.3613C481.076 58.1204 480.779 58 480.389 58H479.393H479.402L479.393 57.209H480.057C480.2 57.209 480.343 57.2057 480.486 57.1992C480.636 57.1927 480.776 57.1569 480.906 57.0918C481.036 57.0267 481.144 56.916 481.229 56.7598C481.313 56.6035 481.355 56.3789 481.355 56.0859C481.355 55.9688 481.346 55.8451 481.326 55.7148C481.307 55.5846 481.251 55.4642 481.16 55.3535C481.076 55.2428 480.949 55.1549 480.779 55.0898C480.61 55.0182 480.376 54.9824 480.076 54.9824C479.777 54.9824 479.536 55.0117 479.354 55.0703C479.178 55.1224 479.044 55.1647 478.953 55.1973L478.611 54.3184C478.768 54.2728 478.96 54.224 479.188 54.1719C479.422 54.1198 479.757 54.0938 480.193 54.0938C480.499 54.0938 480.789 54.1328 481.062 54.2109C481.336 54.2826 481.574 54.3997 481.775 54.5625C481.984 54.7253 482.146 54.9336 482.264 55.1875C482.387 55.4414 482.449 55.7409 482.449 56.0859C482.449 56.2878 482.413 56.4733 482.342 56.6426C482.27 56.8053 482.179 56.9486 482.068 57.0723C481.958 57.196 481.834 57.3001 481.697 57.3848C481.561 57.4629 481.434 57.515 481.316 57.541Z" fill="black"/>
<path d="M476.346 58.7227H477.098V59.6504H476.346V61.3301H475.154V54.1328H476.346V58.7227ZM472.039 59.6504V58.7227L474.754 54.7188V56.1152L473.084 58.7227H474.754V59.6504H472.039Z" fill="black"/>
<path d="M469.607 57.541C469.757 57.5605 469.91 57.6094 470.066 57.6875C470.229 57.7656 470.379 57.8763 470.516 58.0195C470.652 58.1628 470.766 58.3385 470.857 58.5469C470.949 58.7487 470.994 58.9831 470.994 59.25C470.994 59.5755 470.945 59.8587 470.848 60.0996C470.757 60.334 470.639 60.5293 470.496 60.6855C470.353 60.8418 470.19 60.9688 470.008 61.0664C469.832 61.1576 469.66 61.2259 469.49 61.2715C469.321 61.3171 469.165 61.3464 469.021 61.3594C468.885 61.3724 468.777 61.3789 468.699 61.3789C468.152 61.3789 467.719 61.3431 467.4 61.2715C467.088 61.1934 466.87 61.1152 466.746 61.0371L467.01 60.1973C467.068 60.2298 467.124 60.2656 467.176 60.3047C467.228 60.3438 467.303 60.3828 467.4 60.4219C467.498 60.4544 467.635 60.4837 467.811 60.5098C467.986 60.5293 468.227 60.5391 468.533 60.5391C468.982 60.5391 469.318 60.4186 469.539 60.1777C469.76 59.9303 469.871 59.6211 469.871 59.25C469.871 58.8984 469.77 58.6022 469.568 58.3613C469.367 58.1204 469.07 58 468.68 58H467.684H467.693L467.684 57.209H468.348C468.491 57.209 468.634 57.2057 468.777 57.1992C468.927 57.1927 469.067 57.1569 469.197 57.0918C469.327 57.0267 469.435 56.916 469.52 56.7598C469.604 56.6035 469.646 56.3789 469.646 56.0859C469.646 55.9688 469.637 55.8451 469.617 55.7148C469.598 55.5846 469.542 55.4642 469.451 55.3535C469.367 55.2428 469.24 55.1549 469.07 55.0898C468.901 55.0182 468.667 54.9824 468.367 54.9824C468.068 54.9824 467.827 55.0117 467.645 55.0703C467.469 55.1224 467.335 55.1647 467.244 55.1973L466.902 54.3184C467.059 54.2728 467.251 54.224 467.479 54.1719C467.713 54.1198 468.048 54.0938 468.484 54.0938C468.79 54.0938 469.08 54.1328 469.354 54.2109C469.627 54.2826 469.865 54.3997 470.066 54.5625C470.275 54.7253 470.438 54.9336 470.555 55.1875C470.678 55.4414 470.74 55.7409 470.74 56.0859C470.74 56.2878 470.704 56.4733 470.633 56.6426C470.561 56.8053 470.47 56.9486 470.359 57.0723C470.249 57.196 470.125 57.3001 469.988 57.3848C469.852 57.4629 469.725 57.515 469.607 57.541Z" fill="black"/>
<path d="M464.637 58.7227H465.389V59.6504H464.637V61.3301H463.445V54.1328H464.637V58.7227ZM460.33 59.6504V58.7227L463.045 54.7188V56.1152L461.375 58.7227H463.045V59.6504H460.33Z" fill="black"/>
<path d="M459.129 57.9805V58.9668H456.023V57.9805H459.129Z" fill="black"/>
<path d="M454.1 55.2461C454.067 55.2331 454.028 55.2103 453.982 55.1777C453.937 55.1452 453.872 55.1159 453.787 55.0898C453.702 55.0573 453.595 55.0312 453.465 55.0117C453.335 54.9922 453.169 54.9889 452.967 55.002V54.0156C453.253 54.0221 453.543 54.0547 453.836 54.1133C454.135 54.1654 454.376 54.25 454.559 54.3672C454.52 54.4518 454.474 54.5462 454.422 54.6504C454.37 54.748 454.321 54.8424 454.275 54.9336C454.23 55.0182 454.191 55.0898 454.158 55.1484C454.126 55.207 454.106 55.2396 454.1 55.2461ZM450.73 56.0273C450.73 55.7409 450.779 55.4837 450.877 55.2559C450.975 55.028 451.105 54.8294 451.268 54.6602C451.437 54.4844 451.632 54.3477 451.854 54.25C452.081 54.1458 452.319 54.0775 452.566 54.0449V55.0703C452.358 55.1419 452.186 55.2689 452.049 55.4512C451.912 55.627 451.844 55.806 451.844 55.9883C451.844 56.2422 451.912 56.4473 452.049 56.6035C452.186 56.7598 452.358 56.8965 452.566 57.0137V58.127C452.352 58.0228 452.137 57.9121 451.922 57.7949C451.707 57.6712 451.512 57.528 451.336 57.3652C451.16 57.2025 451.014 57.0137 450.896 56.7988C450.786 56.584 450.73 56.3268 450.73 56.0273ZM450.887 60.0117C450.978 60.0638 451.092 60.1159 451.229 60.168C451.372 60.2135 451.518 60.2591 451.668 60.3047C451.818 60.3438 451.967 60.3763 452.117 60.4023C452.267 60.4284 452.407 60.4414 452.537 60.4414H452.566V61.3691H452.547C452.391 61.3691 452.228 61.3594 452.059 61.3398C451.896 61.3268 451.73 61.3008 451.561 61.2617C451.391 61.2227 451.229 61.1706 451.072 61.1055C450.923 61.0339 450.792 60.9492 450.682 60.8516L450.887 60.0117ZM452.967 57.209C453.182 57.3066 453.4 57.4108 453.621 57.5215C453.849 57.6322 454.054 57.7689 454.236 57.9316C454.419 58.0879 454.568 58.2799 454.686 58.5078C454.803 58.7357 454.861 59.0189 454.861 59.3574C454.861 59.5918 454.816 59.8197 454.725 60.041C454.64 60.2624 454.516 60.4642 454.354 60.6465C454.197 60.8223 454.002 60.972 453.768 61.0957C453.533 61.2194 453.266 61.3008 452.967 61.3398V60.4023C453.501 60.2721 453.768 59.9173 453.768 59.3379C453.768 59.11 453.693 58.9212 453.543 58.7715C453.393 58.6217 453.201 58.4818 452.967 58.3516V57.209Z" fill="black"/>
<path d="M448.299 55.5195C448.149 55.3503 447.99 55.2233 447.82 55.1387C447.651 55.054 447.469 55.0052 447.273 54.9922V54.0254C448.003 54.0579 448.615 54.3151 449.109 54.7969L448.299 55.5195ZM447.273 60.4121C447.469 60.3926 447.651 60.3405 447.82 60.2559C447.996 60.1712 448.156 60.0475 448.299 59.8848L449.109 60.5977C448.862 60.8385 448.585 61.0241 448.279 61.1543C447.973 61.2845 447.638 61.3594 447.273 61.3789V60.4121ZM444.109 57.6973C444.109 57.1178 444.178 56.6068 444.314 56.1641C444.458 55.7214 444.653 55.347 444.9 55.041C445.148 54.735 445.438 54.4974 445.77 54.3281C446.108 54.1589 446.476 54.0579 446.873 54.0254V55.002C446.658 55.0345 446.456 55.1094 446.268 55.2266C446.079 55.3372 445.913 55.5 445.77 55.7148C445.626 55.9297 445.512 56.2031 445.428 56.5352C445.35 56.8607 445.307 57.248 445.301 57.6973C445.307 58.153 445.35 58.5436 445.428 58.8691C445.512 59.1947 445.626 59.4681 445.77 59.6895C445.913 59.9108 446.079 60.0801 446.268 60.1973C446.463 60.3145 446.665 60.3861 446.873 60.4121V61.3691C446.476 61.3431 446.108 61.2454 445.77 61.0762C445.438 60.9069 445.148 60.6693 444.9 60.3633C444.653 60.0573 444.458 59.6829 444.314 59.2402C444.178 58.791 444.109 58.2767 444.109 57.6973Z" fill="black"/>
<path d="M442.439 61.3301H441.248V54.1328H442.439V61.3301Z" fill="black"/>
<path d="M472.371 24.1328H473.543V31.3301H472.371V24.1328ZM474.539 24.1328C475.145 24.1328 475.675 24.2305 476.131 24.4258C476.593 24.6146 476.974 24.8685 477.273 25.1875C477.579 25.5065 477.807 25.8711 477.957 26.2812C478.107 26.6849 478.182 27.1016 478.182 27.5312C478.182 28.1237 478.117 28.6315 477.986 29.0547C477.863 29.4714 477.703 29.8229 477.508 30.1094C477.312 30.3893 477.091 30.6107 476.844 30.7734C476.603 30.9362 476.368 31.0599 476.141 31.1445C475.913 31.2227 475.704 31.2747 475.516 31.3008C475.327 31.3203 475.187 31.3301 475.096 31.3301H473.943V30.4707H474.705C475.499 30.4707 476.072 30.2168 476.424 29.709C476.775 29.2012 476.951 28.4655 476.951 27.502C476.951 27.2025 476.915 26.9062 476.844 26.6133C476.772 26.3203 476.632 26.0566 476.424 25.8223C476.222 25.5814 475.945 25.3893 475.594 25.2461C475.242 25.0964 474.786 25.0215 474.227 25.0215H473.943V24.1328H474.539Z" fill="black"/>
<path d="M470.613 31.3301H469.422V25.8125L468.436 26.7988L467.596 25.959L469.422 24.1328H470.613V31.3301Z" fill="black"/>
<path d="M466.531 26.2715C466.531 26.5254 466.476 26.7891 466.365 27.0625C466.255 27.3294 466.108 27.5964 465.926 27.8633C465.743 28.1237 465.542 28.3776 465.32 28.625C465.105 28.8724 464.887 29.1068 464.666 29.3281C464.451 29.5495 464.246 29.7513 464.051 29.9336C463.862 30.1094 463.706 30.2591 463.582 30.3828H466.639V31.3301H462.166V30.2363C462.283 30.1322 462.446 29.9922 462.654 29.8164C462.863 29.6341 463.087 29.4323 463.328 29.2109C463.569 28.9896 463.81 28.7552 464.051 28.5078C464.292 28.2539 464.51 28 464.705 27.7461C464.907 27.4857 465.07 27.2318 465.193 26.9844C465.324 26.737 465.389 26.5026 465.389 26.2812C465.389 26.0534 465.346 25.8646 465.262 25.7148C465.184 25.5586 465.083 25.4316 464.959 25.334C464.835 25.2363 464.699 25.168 464.549 25.1289C464.406 25.0898 464.269 25.0703 464.139 25.0703C463.885 25.0703 463.673 25.0801 463.504 25.0996C463.341 25.1126 463.198 25.1354 463.074 25.168C462.951 25.194 462.84 25.2331 462.742 25.2852C462.645 25.3372 462.54 25.3958 462.43 25.4609L462.088 24.7383C462.205 24.6341 462.348 24.5397 462.518 24.4551C462.693 24.3704 462.872 24.3021 463.055 24.25C463.243 24.1979 463.429 24.1589 463.611 24.1328C463.794 24.1003 463.963 24.084 464.119 24.084C464.542 24.084 464.904 24.1523 465.203 24.2891C465.509 24.4258 465.76 24.6016 465.955 24.8164C466.15 25.0247 466.294 25.2591 466.385 25.5195C466.482 25.7799 466.531 26.0306 466.531 26.2715Z" fill="black"/>
<path d="M456.111 27.5801C456.111 28.0814 456.144 28.5078 456.209 28.8594C456.274 29.2044 456.368 29.4909 456.492 29.7188C456.616 29.9401 456.762 30.1061 456.932 30.2168C457.107 30.3275 457.303 30.3926 457.518 30.4121V31.3789C457.12 31.3529 456.759 31.2585 456.434 31.0957C456.115 30.9264 455.844 30.6888 455.623 30.3828C455.402 30.0703 455.229 29.6895 455.105 29.2402C454.982 28.791 454.92 28.2767 454.92 27.6973V24.1328H456.111V27.5801ZM460.516 24.1328V27.6973C460.516 28.2767 460.454 28.791 460.33 29.2402C460.206 29.6895 460.031 30.0703 459.803 30.3828C459.581 30.6888 459.311 30.9264 458.992 31.0957C458.673 31.2585 458.315 31.3529 457.918 31.3789V30.4121C458.133 30.3861 458.325 30.321 458.494 30.2168C458.67 30.1061 458.82 29.9401 458.943 29.7188C459.067 29.4974 459.161 29.2142 459.227 28.8691C459.298 28.5176 459.334 28.0879 459.334 27.5801V24.1328H460.516Z" fill="black"/>
<path d="M453.621 24.1328V24.9336H451.473V31.3301H450.291V24.9336H448.143V24.1328H453.621Z" fill="black"/>
<path d="M446.727 24.1328V31.3301H445.555V28.0879H442.84V27.2871H445.555V24.1328H446.727ZM441.248 24.1328H442.439V31.3301H441.248V24.1328Z" fill="black"/>
<path d="M448.33 89.6602L444 85.3301L447.58 81.75V67.3301H449.08V81.75L452.66 85.3301L448.33 89.6602Z" fill="black"/>
<path d="M448.33 1.89274e-07L452.66 4.33008L449.08 7.91016L449.08 20.3301L447.58 20.3301L447.58 7.91016L444 4.33008L448.33 1.89274e-07Z" fill="black"/>
</svg>
