<svg width="376" height="305" viewBox="0 0 376 305" fill="none" xmlns="http://www.w3.org/2000/svg">
<path d="M49.8633 116.137C50.043 116.16 50.2266 116.219 50.4141 116.312C50.6094 116.406 50.7891 116.539 50.9531 116.711C51.1172 116.883 51.2539 117.094 51.3633 117.344C51.4727 117.586 51.5273 117.867 51.5273 118.188C51.5273 118.578 51.4688 118.918 51.3516 119.207C51.2422 119.488 51.1016 119.723 50.9297 119.91C50.7578 120.098 50.5625 120.25 50.3438 120.367C50.1328 120.477 49.9258 120.559 49.7227 120.613C49.5195 120.668 49.332 120.703 49.1602 120.719C48.9961 120.734 48.8672 120.742 48.7734 120.742C48.1172 120.742 47.5977 120.699 47.2148 120.613C46.8398 120.52 46.5781 120.426 46.4297 120.332L46.7461 119.324C46.8164 119.363 46.8828 119.406 46.9453 119.453C47.0078 119.5 47.0977 119.547 47.2148 119.594C47.332 119.633 47.4961 119.668 47.707 119.699C47.918 119.723 48.207 119.734 48.5742 119.734C49.1133 119.734 49.5156 119.59 49.7812 119.301C50.0469 119.004 50.1797 118.633 50.1797 118.188C50.1797 117.766 50.0586 117.41 49.8164 117.121C49.5742 116.832 49.2188 116.688 48.75 116.688H47.5547H47.5664L47.5547 115.738H48.3516C48.5234 115.738 48.6953 115.734 48.8672 115.727C49.0469 115.719 49.2148 115.676 49.3711 115.598C49.5273 115.52 49.6562 115.387 49.7578 115.199C49.8594 115.012 49.9102 114.742 49.9102 114.391C49.9102 114.25 49.8984 114.102 49.875 113.945C49.8516 113.789 49.7852 113.645 49.6758 113.512C49.5742 113.379 49.4219 113.273 49.2188 113.195C49.0156 113.109 48.7344 113.066 48.375 113.066C48.0156 113.066 47.7266 113.102 47.5078 113.172C47.2969 113.234 47.1367 113.285 47.0273 113.324L46.6172 112.27C46.8047 112.215 47.0352 112.156 47.3086 112.094C47.5898 112.031 47.9922 112 48.5156 112C48.8828 112 49.2305 112.047 49.5586 112.141C49.8867 112.227 50.1719 112.367 50.4141 112.562C50.6641 112.758 50.8594 113.008 51 113.312C51.1484 113.617 51.2227 113.977 51.2227 114.391C51.2227 114.633 51.1797 114.855 51.0938 115.059C51.0078 115.254 50.8984 115.426 50.7656 115.574C50.6328 115.723 50.4844 115.848 50.3203 115.949C50.1562 116.043 50.0039 116.105 49.8633 116.137Z" fill="black"/>
<path d="M36.5039 112.047H37.9336L40.2539 117.379V119.547H39.8789L37.9336 114.742V120.684H36.5039V112.047ZM43.0547 112.047H44.4844V120.684H43.0547V114.742L41.1211 119.547H40.7344V117.402L43.0547 112.047Z" fill="black"/>
<path d="M98.875 61.0469H100.305L102.625 66.3789V68.5469H102.25L100.305 63.7422V69.6836H98.875V61.0469ZM105.426 61.0469H106.855V69.6836H105.426V63.7422L103.492 68.5469H103.105V66.4023L105.426 61.0469Z" fill="black"/>
<path d="M88.7383 61.0469H90.168L92.4883 66.3789V68.5469H92.1133L90.168 63.7422V69.6836H88.7383V61.0469ZM95.2891 61.0469H96.7188V69.6836H95.2891V63.7422L93.3555 68.5469H92.9688V66.4023L95.2891 61.0469Z" fill="black"/>
<path d="M84.1445 64.3164C84.5508 64.3164 84.9141 64.3906 85.2344 64.5391C85.5625 64.6797 85.8398 64.8711 86.0664 65.1133C86.293 65.3555 86.4648 65.6289 86.582 65.9336C86.6992 66.2383 86.7578 66.5547 86.7578 66.8828C86.7578 67.5234 86.6523 68.0352 86.4414 68.418C86.2305 68.793 85.9688 69.082 85.6562 69.2852C85.3516 69.4805 85.0312 69.6055 84.6953 69.6602C84.3594 69.7148 84.0703 69.7422 83.8281 69.7422C83.5625 69.7422 83.3086 69.7227 83.0664 69.6836C82.8242 69.6367 82.6016 69.582 82.3984 69.5195C82.2031 69.4492 82.0312 69.3828 81.8828 69.3203C81.7344 69.25 81.6211 69.1953 81.543 69.1562V67.9844C81.6523 68.0547 81.7891 68.1328 81.9531 68.2188C82.125 68.2969 82.3047 68.375 82.4922 68.4531C82.6797 68.5234 82.875 68.582 83.0781 68.6289C83.2891 68.6758 83.4844 68.6992 83.6641 68.6992C84.2422 68.6992 84.6953 68.5508 85.0234 68.2539C85.3516 67.957 85.5156 67.5 85.5156 66.8828C85.5156 66.4375 85.3711 66.0859 85.082 65.8281C84.8008 65.5703 84.4297 65.4414 83.9688 65.4414C83.8203 65.4414 83.6719 65.4531 83.5234 65.4766C83.375 65.4922 83.2344 65.5195 83.1016 65.5586L83.2422 64.3984C83.3984 64.3672 83.5625 64.3477 83.7344 64.3398C83.9141 64.3242 84.0508 64.3164 84.1445 64.3164ZM82.5859 65.8633H81.4844C81.4844 65.8008 81.4922 65.6836 81.5078 65.5117C81.5234 65.3398 81.543 65.1367 81.5664 64.9023C81.5898 64.6602 81.6172 64.3984 81.6484 64.1172C81.6797 63.8359 81.7109 63.5508 81.7422 63.2617C81.8203 62.5898 81.9102 61.8516 82.0117 61.0469H86.2891V62.1953H83.0664C82.9883 62.7734 82.9258 63.2227 82.8789 63.543C82.832 63.8633 82.7969 64.1016 82.7734 64.2578C82.7578 64.4141 82.7461 64.5117 82.7383 64.5508C82.7383 64.582 82.7383 64.6016 82.7383 64.6094L82.6445 65.3945L82.5859 65.8633Z" fill="black"/>
<path d="M80.207 68.8867C80.207 69.1211 80.125 69.3203 79.9609 69.4844C79.7969 69.6484 79.5977 69.7305 79.3633 69.7305C79.1289 69.7305 78.9297 69.6484 78.7656 69.4844C78.6094 69.3203 78.5312 69.1211 78.5312 68.8867C78.5312 68.6523 78.6133 68.457 78.7773 68.3008C78.9414 68.1367 79.1367 68.0547 79.3633 68.0547C79.5977 68.0547 79.7969 68.1367 79.9609 68.3008C80.125 68.457 80.207 68.6523 80.207 68.8867Z" fill="black"/>
<path d="M75.6719 65.1367C75.8516 65.1602 76.0352 65.2188 76.2227 65.3125C76.418 65.4062 76.5977 65.5391 76.7617 65.7109C76.9258 65.8828 77.0625 66.0938 77.1719 66.3438C77.2812 66.5859 77.3359 66.8672 77.3359 67.1875C77.3359 67.5781 77.2773 67.918 77.1602 68.207C77.0508 68.4883 76.9102 68.7227 76.7383 68.9102C76.5664 69.0977 76.3711 69.25 76.1523 69.3672C75.9414 69.4766 75.7344 69.5586 75.5312 69.6133C75.3281 69.668 75.1406 69.7031 74.9688 69.7188C74.8047 69.7344 74.6758 69.7422 74.582 69.7422C73.9258 69.7422 73.4062 69.6992 73.0234 69.6133C72.6484 69.5195 72.3867 69.4258 72.2383 69.332L72.5547 68.3242C72.625 68.3633 72.6914 68.4062 72.7539 68.4531C72.8164 68.5 72.9062 68.5469 73.0234 68.5938C73.1406 68.6328 73.3047 68.668 73.5156 68.6992C73.7266 68.7227 74.0156 68.7344 74.3828 68.7344C74.9219 68.7344 75.3242 68.5898 75.5898 68.3008C75.8555 68.0039 75.9883 67.6328 75.9883 67.1875C75.9883 66.7656 75.8672 66.4102 75.625 66.1211C75.3828 65.832 75.0273 65.6875 74.5586 65.6875H73.3633H73.375L73.3633 64.7383H74.1602C74.332 64.7383 74.5039 64.7344 74.6758 64.7266C74.8555 64.7188 75.0234 64.6758 75.1797 64.5977C75.3359 64.5195 75.4648 64.3867 75.5664 64.1992C75.668 64.0117 75.7188 63.7422 75.7188 63.3906C75.7188 63.25 75.707 63.1016 75.6836 62.9453C75.6602 62.7891 75.5938 62.6445 75.4844 62.5117C75.3828 62.3789 75.2305 62.2734 75.0273 62.1953C74.8242 62.1094 74.543 62.0664 74.1836 62.0664C73.8242 62.0664 73.5352 62.1016 73.3164 62.1719C73.1055 62.2344 72.9453 62.2852 72.8359 62.3242L72.4258 61.2695C72.6133 61.2148 72.8438 61.1562 73.1172 61.0938C73.3984 61.0312 73.8008 61 74.3242 61C74.6914 61 75.0391 61.0469 75.3672 61.1406C75.6953 61.2266 75.9805 61.3672 76.2227 61.5625C76.4727 61.7578 76.668 62.0078 76.8086 62.3125C76.957 62.6172 77.0312 62.9766 77.0312 63.3906C77.0312 63.6328 76.9883 63.8555 76.9023 64.0586C76.8164 64.2539 76.707 64.4258 76.5742 64.5742C76.4414 64.7227 76.293 64.8477 76.1289 64.9492C75.9648 65.043 75.8125 65.1055 75.6719 65.1367Z" fill="black"/>
<path d="M70.3867 69.6836H68.957V63.0625L67.7734 64.2461L66.7656 63.2383L68.957 61.0469H70.3867V69.6836Z" fill="black"/>
<path d="M227.875 24.0469H229.305L231.625 29.3789V31.5469H231.25L229.305 26.7422V32.6836H227.875V24.0469ZM234.426 24.0469H235.855V32.6836H234.426V26.7422L232.492 31.5469H232.105V29.4023L234.426 24.0469Z" fill="black"/>
<path d="M217.738 24.0469H219.168L221.488 29.3789V31.5469H221.113L219.168 26.7422V32.6836H217.738V24.0469ZM224.289 24.0469H225.719V32.6836H224.289V26.7422L222.355 31.5469H221.969V29.4023L224.289 24.0469Z" fill="black"/>
<path d="M215.676 32.6836H214.246V26.0625L213.062 27.2461L212.055 26.2383L214.246 24.0469H215.676V32.6836Z" fill="black"/>
<path d="M211.352 31.8867C211.352 32.1211 211.27 32.3203 211.105 32.4844C210.941 32.6484 210.742 32.7305 210.508 32.7305C210.273 32.7305 210.074 32.6484 209.91 32.4844C209.754 32.3203 209.676 32.1211 209.676 31.8867C209.676 31.6523 209.758 31.457 209.922 31.3008C210.086 31.1367 210.281 31.0547 210.508 31.0547C210.742 31.0547 210.941 31.1367 211.105 31.3008C211.27 31.457 211.352 31.6523 211.352 31.8867Z" fill="black"/>
<path d="M205.773 27.3164C206.18 27.3164 206.543 27.3906 206.863 27.5391C207.191 27.6797 207.469 27.8711 207.695 28.1133C207.922 28.3555 208.094 28.6289 208.211 28.9336C208.328 29.2383 208.387 29.5547 208.387 29.8828C208.387 30.5234 208.281 31.0352 208.07 31.418C207.859 31.793 207.598 32.082 207.285 32.2852C206.98 32.4805 206.66 32.6055 206.324 32.6602C205.988 32.7148 205.699 32.7422 205.457 32.7422C205.191 32.7422 204.938 32.7227 204.695 32.6836C204.453 32.6367 204.23 32.582 204.027 32.5195C203.832 32.4492 203.66 32.3828 203.512 32.3203C203.363 32.25 203.25 32.1953 203.172 32.1562V30.9844C203.281 31.0547 203.418 31.1328 203.582 31.2188C203.754 31.2969 203.934 31.375 204.121 31.4531C204.309 31.5234 204.504 31.582 204.707 31.6289C204.918 31.6758 205.113 31.6992 205.293 31.6992C205.871 31.6992 206.324 31.5508 206.652 31.2539C206.98 30.957 207.145 30.5 207.145 29.8828C207.145 29.4375 207 29.0859 206.711 28.8281C206.43 28.5703 206.059 28.4414 205.598 28.4414C205.449 28.4414 205.301 28.4531 205.152 28.4766C205.004 28.4922 204.863 28.5195 204.73 28.5586L204.871 27.3984C205.027 27.3672 205.191 27.3477 205.363 27.3398C205.543 27.3242 205.68 27.3164 205.773 27.3164ZM204.215 28.8633H203.113C203.113 28.8008 203.121 28.6836 203.137 28.5117C203.152 28.3398 203.172 28.1367 203.195 27.9023C203.219 27.6602 203.246 27.3984 203.277 27.1172C203.309 26.8359 203.34 26.5508 203.371 26.2617C203.449 25.5898 203.539 24.8516 203.641 24.0469H207.918V25.1953H204.695C204.617 25.7734 204.555 26.2227 204.508 26.543C204.461 26.8633 204.426 27.1016 204.402 27.2578C204.387 27.4141 204.375 27.5117 204.367 27.5508C204.367 27.582 204.367 27.6016 204.367 27.6094L204.273 28.3945L204.215 28.8633Z" fill="black"/>
<path d="M199.727 28.1367C199.906 28.1602 200.09 28.2188 200.277 28.3125C200.473 28.4062 200.652 28.5391 200.816 28.7109C200.98 28.8828 201.117 29.0938 201.227 29.3438C201.336 29.5859 201.391 29.8672 201.391 30.1875C201.391 30.5781 201.332 30.918 201.215 31.207C201.105 31.4883 200.965 31.7227 200.793 31.9102C200.621 32.0977 200.426 32.25 200.207 32.3672C199.996 32.4766 199.789 32.5586 199.586 32.6133C199.383 32.668 199.195 32.7031 199.023 32.7188C198.859 32.7344 198.73 32.7422 198.637 32.7422C197.98 32.7422 197.461 32.6992 197.078 32.6133C196.703 32.5195 196.441 32.4258 196.293 32.332L196.609 31.3242C196.68 31.3633 196.746 31.4062 196.809 31.4531C196.871 31.5 196.961 31.5469 197.078 31.5938C197.195 31.6328 197.359 31.668 197.57 31.6992C197.781 31.7227 198.07 31.7344 198.438 31.7344C198.977 31.7344 199.379 31.5898 199.645 31.3008C199.91 31.0039 200.043 30.6328 200.043 30.1875C200.043 29.7656 199.922 29.4102 199.68 29.1211C199.438 28.832 199.082 28.6875 198.613 28.6875H197.418H197.43L197.418 27.7383H198.215C198.387 27.7383 198.559 27.7344 198.73 27.7266C198.91 27.7188 199.078 27.6758 199.234 27.5977C199.391 27.5195 199.52 27.3867 199.621 27.1992C199.723 27.0117 199.773 26.7422 199.773 26.3906C199.773 26.25 199.762 26.1016 199.738 25.9453C199.715 25.7891 199.648 25.6445 199.539 25.5117C199.438 25.3789 199.285 25.2734 199.082 25.1953C198.879 25.1094 198.598 25.0664 198.238 25.0664C197.879 25.0664 197.59 25.1016 197.371 25.1719C197.16 25.2344 197 25.2852 196.891 25.3242L196.48 24.2695C196.668 24.2148 196.898 24.1562 197.172 24.0938C197.453 24.0312 197.855 24 198.379 24C198.746 24 199.094 24.0469 199.422 24.1406C199.75 24.2266 200.035 24.3672 200.277 24.5625C200.527 24.7578 200.723 25.0078 200.863 25.3125C201.012 25.6172 201.086 25.9766 201.086 26.3906C201.086 26.6328 201.043 26.8555 200.957 27.0586C200.871 27.2539 200.762 27.4258 200.629 27.5742C200.496 27.7227 200.348 27.8477 200.184 27.9492C200.02 28.043 199.867 28.1055 199.727 28.1367Z" fill="black"/>
<path d="M64.4258 116.684C64.4258 118.893 62.6349 120.684 60.4258 120.684C58.2166 120.684 56.4258 118.893 56.4258 116.684C56.4258 114.731 57.8252 113.106 59.6758 112.755L59.6758 17.6836L61.1758 17.6836L61.1758 112.755C63.0263 113.106 64.4258 114.731 64.4258 116.684Z" fill="black"/>
<path d="M367.426 13.6836C369.635 13.6836 371.426 15.4745 371.426 17.6836C371.426 19.8927 369.635 21.6836 367.426 21.6836C365.473 21.6836 363.848 20.2841 363.497 18.4336H64.3545C64.0034 20.2841 62.3785 21.6836 60.4258 21.6836C58.2166 21.6836 56.4258 19.8927 56.4258 17.6836C56.4258 15.4745 58.2166 13.6836 60.4258 13.6836C62.3785 13.6836 64.0034 15.083 64.3545 16.9336H363.497C363.848 15.083 365.473 13.6836 367.426 13.6836Z" fill="black"/>
<path d="M53.3555 219.047V220.008H50.7773V227.684H49.3594V220.008H46.7812V219.047H53.3555Z" fill="black"/>
<path d="M45.4453 227.684H43.9922L41.7539 221.215L39.4922 227.684H38.0273L41.0508 219.059H42.4453L45.4453 227.684ZM42.5273 224.941L42.8672 225.891H40.6289L40.957 224.941H42.5273Z" fill="black"/>
<path d="M34.6289 223.137C34.8086 223.16 35 223.219 35.2031 223.312C35.4062 223.406 35.5938 223.539 35.7656 223.711C35.9453 223.883 36.0938 224.094 36.2109 224.344C36.3281 224.586 36.3867 224.867 36.3867 225.188C36.3867 225.578 36.3281 225.914 36.2109 226.195C36.0938 226.477 35.9453 226.711 35.7656 226.898C35.5938 227.078 35.4023 227.223 35.1914 227.332C34.9883 227.434 34.7891 227.512 34.5938 227.566C34.4062 227.621 34.2383 227.656 34.0898 227.672C33.9414 227.68 33.8438 227.684 33.7969 227.684H32.4375V226.652H33.7148C34.1289 226.652 34.4531 226.52 34.6875 226.254C34.9219 225.988 35.0391 225.633 35.0391 225.188C35.0391 224.766 34.918 224.41 34.6758 224.121C34.4336 223.832 34.0781 223.688 33.6094 223.688H32.4375V222.738H33C33.1719 222.738 33.3477 222.734 33.5273 222.727C33.707 222.719 33.875 222.676 34.0312 222.598C34.1875 222.52 34.3125 222.387 34.4062 222.199C34.5078 222.012 34.5586 221.742 34.5586 221.391C34.5586 221.25 34.5391 221.105 34.5 220.957C34.4609 220.801 34.3828 220.66 34.2656 220.535C34.1484 220.41 33.9805 220.309 33.7617 220.23C33.543 220.152 33.2539 220.113 32.8945 220.113H32.4375V219.047H33.0352C33.4023 219.047 33.7578 219.09 34.1016 219.176C34.4453 219.262 34.75 219.398 35.0156 219.586C35.2812 219.773 35.4922 220.02 35.6484 220.324C35.8047 220.621 35.8828 220.977 35.8828 221.391C35.8828 221.633 35.8438 221.855 35.7656 222.059C35.6875 222.254 35.5898 222.426 35.4727 222.574C35.3555 222.723 35.2188 222.848 35.0625 222.949C34.9141 223.043 34.7695 223.105 34.6289 223.137ZM30.5508 219.047H31.957V227.684H30.5508V219.047Z" fill="black"/>
<path d="M6.94922 281.994V283.375H2.60156V281.994H6.94922Z" fill="black"/>
<path d="M7.71094 301.525H4.55273V304.684H3.1582V301.525H0V300.131H3.1582V296.973H4.55273V300.131H7.71094V301.525Z" fill="black"/>
<path d="M31.4258 244.014L27.0957 239.684L30.6758 236.104L30.6758 228.684L32.1758 228.684L32.1758 236.104L35.7559 239.684L31.4258 244.014Z" fill="black"/>
<path d="M373.863 4.13672C374.043 4.16016 374.227 4.21875 374.414 4.3125C374.609 4.40625 374.789 4.53906 374.953 4.71094C375.117 4.88281 375.254 5.09375 375.363 5.34375C375.473 5.58594 375.527 5.86719 375.527 6.1875C375.527 6.57812 375.469 6.91797 375.352 7.20703C375.242 7.48828 375.102 7.72266 374.93 7.91016C374.758 8.09766 374.562 8.25 374.344 8.36719C374.133 8.47656 373.926 8.55859 373.723 8.61328C373.52 8.66797 373.332 8.70312 373.16 8.71875C372.996 8.73438 372.867 8.74219 372.773 8.74219C372.117 8.74219 371.598 8.69922 371.215 8.61328C370.84 8.51953 370.578 8.42578 370.43 8.33203L370.746 7.32422C370.816 7.36328 370.883 7.40625 370.945 7.45312C371.008 7.5 371.098 7.54688 371.215 7.59375C371.332 7.63281 371.496 7.66797 371.707 7.69922C371.918 7.72266 372.207 7.73438 372.574 7.73438C373.113 7.73438 373.516 7.58984 373.781 7.30078C374.047 7.00391 374.18 6.63281 374.18 6.1875C374.18 5.76562 374.059 5.41016 373.816 5.12109C373.574 4.83203 373.219 4.6875 372.75 4.6875H371.555H371.566L371.555 3.73828H372.352C372.523 3.73828 372.695 3.73438 372.867 3.72656C373.047 3.71875 373.215 3.67578 373.371 3.59766C373.527 3.51953 373.656 3.38672 373.758 3.19922C373.859 3.01172 373.91 2.74219 373.91 2.39062C373.91 2.25 373.898 2.10156 373.875 1.94531C373.852 1.78906 373.785 1.64453 373.676 1.51172C373.574 1.37891 373.422 1.27344 373.219 1.19531C373.016 1.10938 372.734 1.06641 372.375 1.06641C372.016 1.06641 371.727 1.10156 371.508 1.17188C371.297 1.23438 371.137 1.28516 371.027 1.32422L370.617 0.269531C370.805 0.214844 371.035 0.15625 371.309 0.09375C371.59 0.03125 371.992 0 372.516 0C372.883 0 373.23 0.046875 373.559 0.140625C373.887 0.226562 374.172 0.367188 374.414 0.5625C374.664 0.757812 374.859 1.00781 375 1.3125C375.148 1.61719 375.223 1.97656 375.223 2.39062C375.223 2.63281 375.18 2.85547 375.094 3.05859C375.008 3.25391 374.898 3.42578 374.766 3.57422C374.633 3.72266 374.484 3.84766 374.32 3.94922C374.156 4.04297 374.004 4.10547 373.863 4.13672Z" fill="black"/>
<path d="M360.504 0.046875H361.934L364.254 5.37891V7.54688H363.879L361.934 2.74219V8.68359H360.504V0.046875ZM367.055 0.046875H368.484V8.68359H367.055V2.74219L365.121 7.54688H364.734V5.40234L367.055 0.046875Z" fill="black"/>
<path d="M354.512 124.047H355.918V132.684H354.512V124.047ZM360.371 132.684H358.883L357.254 129.555C357.23 129.555 357.203 129.559 357.172 129.566C357.148 129.566 357.109 129.566 357.055 129.566C357 129.566 356.918 129.566 356.809 129.566C356.707 129.566 356.57 129.566 356.398 129.566V128.535H357.195C357.367 128.535 357.539 128.508 357.711 128.453C357.883 128.391 358.039 128.293 358.18 128.16C358.32 128.027 358.434 127.844 358.52 127.609C358.605 127.367 358.648 127.07 358.648 126.719C358.648 126.578 358.629 126.418 358.59 126.238C358.551 126.051 358.469 125.875 358.344 125.711C358.227 125.539 358.059 125.398 357.84 125.289C357.621 125.172 357.332 125.113 356.973 125.113H356.398V124.047H356.996C357.363 124.047 357.727 124.105 358.086 124.223C358.445 124.34 358.766 124.516 359.047 124.75C359.336 124.984 359.566 125.27 359.738 125.605C359.918 125.934 360.008 126.305 360.008 126.719C360.008 127.344 359.863 127.875 359.574 128.312C359.285 128.75 358.895 129.074 358.402 129.285L360.371 132.684Z" fill="black"/>
<path d="M352.379 132.684H350.949V124.047H352.379V132.684Z" fill="black"/>
<path d="M348.945 124.047V125.184L344.832 131.359L344.598 131.547H348.945V132.684H343.203V131.547L347.316 125.371L347.562 125.184H343.203V124.047H348.945Z" fill="black"/>
<path d="M334.191 128.324C334.191 127.629 334.273 127.016 334.438 126.484C334.609 125.945 334.844 125.492 335.141 125.125C335.445 124.75 335.801 124.465 336.207 124.27C336.621 124.066 337.07 123.949 337.555 123.918V125.09C337.289 125.121 337.039 125.203 336.805 125.336C336.57 125.469 336.367 125.664 336.195 125.922C336.023 126.18 335.887 126.508 335.785 126.906C335.684 127.305 335.629 127.777 335.621 128.324C335.629 128.879 335.684 129.355 335.785 129.754C335.887 130.145 336.023 130.473 336.195 130.738C336.375 131.004 336.582 131.207 336.816 131.348C337.051 131.48 337.297 131.559 337.555 131.582V132.742C337.078 132.711 336.633 132.598 336.219 132.402C335.805 132.199 335.445 131.914 335.141 131.547C334.844 131.172 334.609 130.715 334.438 130.176C334.273 129.637 334.191 129.02 334.191 128.324ZM338.023 123.918C338.5 123.941 338.941 124.055 339.348 124.258C339.762 124.461 340.117 124.75 340.414 125.125C340.719 125.492 340.957 125.945 341.129 126.484C341.301 127.016 341.387 127.629 341.387 128.324C341.387 129.02 341.301 129.637 341.129 130.176C340.957 130.715 340.719 131.172 340.414 131.547C340.117 131.914 339.766 132.199 339.359 132.402C338.953 132.598 338.508 132.711 338.023 132.742V131.582C338.289 131.551 338.539 131.469 338.773 131.336C339.008 131.195 339.211 130.996 339.383 130.738C339.555 130.473 339.691 130.145 339.793 129.754C339.895 129.355 339.949 128.879 339.957 128.324C339.949 127.77 339.895 127.297 339.793 126.906C339.691 126.508 339.551 126.18 339.371 125.922C339.199 125.656 338.996 125.457 338.762 125.324C338.527 125.184 338.281 125.102 338.023 125.078V123.918Z" fill="black"/>
<path d="M331.379 125.711C331.199 125.508 331.008 125.355 330.805 125.254C330.602 125.152 330.383 125.094 330.148 125.078V123.918C331.023 123.957 331.758 124.266 332.352 124.844L331.379 125.711ZM330.148 131.582C330.383 131.559 330.602 131.496 330.805 131.395C331.016 131.293 331.207 131.145 331.379 130.949L332.352 131.805C332.055 132.094 331.723 132.316 331.355 132.473C330.988 132.629 330.586 132.719 330.148 132.742V131.582ZM326.352 128.324C326.352 127.629 326.434 127.016 326.598 126.484C326.77 125.953 327.004 125.504 327.301 125.137C327.598 124.77 327.945 124.484 328.344 124.281C328.75 124.078 329.191 123.957 329.668 123.918V125.09C329.41 125.129 329.168 125.219 328.941 125.359C328.715 125.492 328.516 125.688 328.344 125.945C328.172 126.203 328.035 126.531 327.934 126.93C327.84 127.32 327.789 127.785 327.781 128.324C327.789 128.871 327.84 129.34 327.934 129.73C328.035 130.121 328.172 130.449 328.344 130.715C328.516 130.98 328.715 131.184 328.941 131.324C329.176 131.465 329.418 131.551 329.668 131.582V132.73C329.191 132.699 328.75 132.582 328.344 132.379C327.945 132.176 327.598 131.891 327.301 131.523C327.004 131.156 326.77 130.707 326.598 130.176C326.434 129.637 326.352 129.02 326.352 128.324Z" fill="black"/>
<path d="M350.426 149.014L346.096 144.684L349.676 141.104L349.676 133.684L351.176 133.684L351.176 141.104L354.756 144.684L350.426 149.014Z" fill="black"/>
<path d="M350.426 149.014L346.096 144.684L349.676 141.104L349.676 133.684L351.176 133.684L351.176 141.104L354.756 144.684L350.426 149.014Z" fill="black"/>
<path d="M367.988 213.047H369.418V221.684H367.988L365.082 216.574V213.879L367.988 219V213.047ZM363.172 221.684V213.047H364.602V221.684H363.172Z" fill="black"/>
<path d="M355.848 213.047H357.277V221.684H355.848V213.047ZM360.887 217.793H357.758V216.832H360.887V217.793ZM357.758 220.617H361.25V221.684H357.758V220.617ZM361.25 213.047V214.113H357.758V213.047H361.25Z" fill="black"/>
<path d="M348.488 213.047H349.918V221.684H348.488V213.047ZM353.527 217.793H350.398V216.832H353.527V217.793ZM350.398 220.617H353.891V221.684H350.398V220.617ZM353.891 213.047V214.113H350.398V213.047H353.891Z" fill="black"/>
<path d="M340.695 213.047H342.102V221.684H340.695V213.047ZM346.555 221.684H345.066L343.438 218.555C343.414 218.555 343.387 218.559 343.355 218.566C343.332 218.566 343.293 218.566 343.238 218.566C343.184 218.566 343.102 218.566 342.992 218.566C342.891 218.566 342.754 218.566 342.582 218.566V217.535H343.379C343.551 217.535 343.723 217.508 343.895 217.453C344.066 217.391 344.223 217.293 344.363 217.16C344.504 217.027 344.617 216.844 344.703 216.609C344.789 216.367 344.832 216.07 344.832 215.719C344.832 215.578 344.812 215.418 344.773 215.238C344.734 215.051 344.652 214.875 344.527 214.711C344.41 214.539 344.242 214.398 344.023 214.289C343.805 214.172 343.516 214.113 343.156 214.113H342.582V213.047H343.18C343.547 213.047 343.91 213.105 344.27 213.223C344.629 213.34 344.949 213.516 345.23 213.75C345.52 213.984 345.75 214.27 345.922 214.605C346.102 214.934 346.191 215.305 346.191 215.719C346.191 216.344 346.047 216.875 345.758 217.312C345.469 217.75 345.078 218.074 344.586 218.285L346.555 221.684Z" fill="black"/>
<path d="M337.73 214.711C337.551 214.508 337.359 214.355 337.156 214.254C336.953 214.152 336.734 214.094 336.5 214.078V212.918C337.375 212.957 338.109 213.266 338.703 213.844L337.73 214.711ZM336.5 220.582C336.734 220.559 336.953 220.496 337.156 220.395C337.367 220.293 337.559 220.145 337.73 219.949L338.703 220.805C338.406 221.094 338.074 221.316 337.707 221.473C337.34 221.629 336.938 221.719 336.5 221.742V220.582ZM332.703 217.324C332.703 216.629 332.785 216.016 332.949 215.484C333.121 214.953 333.355 214.504 333.652 214.137C333.949 213.77 334.297 213.484 334.695 213.281C335.102 213.078 335.543 212.957 336.02 212.918V214.09C335.762 214.129 335.52 214.219 335.293 214.359C335.066 214.492 334.867 214.688 334.695 214.945C334.523 215.203 334.387 215.531 334.285 215.93C334.191 216.32 334.141 216.785 334.133 217.324C334.141 217.871 334.191 218.34 334.285 218.73C334.387 219.121 334.523 219.449 334.695 219.715C334.867 219.98 335.066 220.184 335.293 220.324C335.527 220.465 335.77 220.551 336.02 220.582V221.73C335.543 221.699 335.102 221.582 334.695 221.379C334.297 221.176 333.949 220.891 333.652 220.523C333.355 220.156 333.121 219.707 332.949 219.176C332.785 218.637 332.703 218.02 332.703 217.324Z" fill="black"/>
<path d="M330.477 214.383C330.438 214.367 330.391 214.34 330.336 214.301C330.281 214.262 330.203 214.227 330.102 214.195C330 214.156 329.871 214.125 329.715 214.102C329.559 214.078 329.359 214.074 329.117 214.09V212.906C329.461 212.914 329.809 212.953 330.16 213.023C330.52 213.086 330.809 213.188 331.027 213.328C330.98 213.43 330.926 213.543 330.863 213.668C330.801 213.785 330.742 213.898 330.688 214.008C330.633 214.109 330.586 214.195 330.547 214.266C330.508 214.336 330.484 214.375 330.477 214.383ZM326.434 215.32C326.434 214.977 326.492 214.668 326.609 214.395C326.727 214.121 326.883 213.883 327.078 213.68C327.281 213.469 327.516 213.305 327.781 213.188C328.055 213.062 328.34 212.98 328.637 212.941V214.172C328.387 214.258 328.18 214.41 328.016 214.629C327.852 214.84 327.77 215.055 327.77 215.273C327.77 215.578 327.852 215.824 328.016 216.012C328.18 216.199 328.387 216.363 328.637 216.504V217.84C328.379 217.715 328.121 217.582 327.863 217.441C327.605 217.293 327.371 217.121 327.16 216.926C326.949 216.73 326.773 216.504 326.633 216.246C326.5 215.988 326.434 215.68 326.434 215.32ZM326.621 220.102C326.73 220.164 326.867 220.227 327.031 220.289C327.203 220.344 327.379 220.398 327.559 220.453C327.738 220.5 327.918 220.539 328.098 220.57C328.277 220.602 328.445 220.617 328.602 220.617H328.637V221.73H328.613C328.426 221.73 328.23 221.719 328.027 221.695C327.832 221.68 327.633 221.648 327.43 221.602C327.227 221.555 327.031 221.492 326.844 221.414C326.664 221.328 326.508 221.227 326.375 221.109L326.621 220.102ZM329.117 216.738C329.375 216.855 329.637 216.98 329.902 217.113C330.176 217.246 330.422 217.41 330.641 217.605C330.859 217.793 331.039 218.023 331.18 218.297C331.32 218.57 331.391 218.91 331.391 219.316C331.391 219.598 331.336 219.871 331.227 220.137C331.125 220.402 330.977 220.645 330.781 220.863C330.594 221.074 330.359 221.254 330.078 221.402C329.797 221.551 329.477 221.648 329.117 221.695V220.57C329.758 220.414 330.078 219.988 330.078 219.293C330.078 219.02 329.988 218.793 329.809 218.613C329.629 218.434 329.398 218.266 329.117 218.109V216.738Z" fill="black"/>
<path d="M161.902 201.684H160.473V195.062L159.289 196.246L158.281 195.238L160.473 193.047H161.902V201.684Z" fill="black"/>
<path d="M156.277 198.555H157.18V199.668H156.277V201.684H154.848V193.047H156.277V198.555ZM151.109 199.668V198.555L154.367 193.75V195.426L152.363 198.555H154.367V199.668H151.109Z" fill="black"/>
<path d="M142.766 193.047H144.172V201.684H142.766V193.047ZM145.367 193.047C146.094 193.047 146.73 193.164 147.277 193.398C147.832 193.625 148.289 193.93 148.648 194.312C149.016 194.695 149.289 195.133 149.469 195.625C149.648 196.109 149.738 196.609 149.738 197.125C149.738 197.836 149.66 198.445 149.504 198.953C149.355 199.453 149.164 199.875 148.93 200.219C148.695 200.555 148.43 200.82 148.133 201.016C147.844 201.211 147.562 201.359 147.289 201.461C147.016 201.555 146.766 201.617 146.539 201.648C146.312 201.672 146.145 201.684 146.035 201.684H144.652V200.652H145.566C146.52 200.652 147.207 200.348 147.629 199.738C148.051 199.129 148.262 198.246 148.262 197.09C148.262 196.73 148.219 196.375 148.133 196.023C148.047 195.672 147.879 195.355 147.629 195.074C147.387 194.785 147.055 194.555 146.633 194.383C146.211 194.203 145.664 194.113 144.992 194.113H144.652V193.047H145.367Z" fill="black"/>
<path d="M139.73 194.711C139.551 194.508 139.359 194.355 139.156 194.254C138.953 194.152 138.734 194.094 138.5 194.078V192.918C139.375 192.957 140.109 193.266 140.703 193.844L139.73 194.711ZM138.5 200.582C138.734 200.559 138.953 200.496 139.156 200.395C139.367 200.293 139.559 200.145 139.73 199.949L140.703 200.805C140.406 201.094 140.074 201.316 139.707 201.473C139.34 201.629 138.938 201.719 138.5 201.742V200.582ZM134.703 197.324C134.703 196.629 134.785 196.016 134.949 195.484C135.121 194.953 135.355 194.504 135.652 194.137C135.949 193.77 136.297 193.484 136.695 193.281C137.102 193.078 137.543 192.957 138.02 192.918V194.09C137.762 194.129 137.52 194.219 137.293 194.359C137.066 194.492 136.867 194.688 136.695 194.945C136.523 195.203 136.387 195.531 136.285 195.93C136.191 196.32 136.141 196.785 136.133 197.324C136.141 197.871 136.191 198.34 136.285 198.73C136.387 199.121 136.523 199.449 136.695 199.715C136.867 199.98 137.066 200.184 137.293 200.324C137.527 200.465 137.77 200.551 138.02 200.582V201.73C137.543 201.699 137.102 201.582 136.695 201.379C136.297 201.176 135.949 200.891 135.652 200.523C135.355 200.156 135.121 199.707 134.949 199.176C134.785 198.637 134.703 198.02 134.703 197.324Z" fill="black"/>
<path d="M132.477 194.383C132.438 194.367 132.391 194.34 132.336 194.301C132.281 194.262 132.203 194.227 132.102 194.195C132 194.156 131.871 194.125 131.715 194.102C131.559 194.078 131.359 194.074 131.117 194.09V192.906C131.461 192.914 131.809 192.953 132.16 193.023C132.52 193.086 132.809 193.188 133.027 193.328C132.98 193.43 132.926 193.543 132.863 193.668C132.801 193.785 132.742 193.898 132.688 194.008C132.633 194.109 132.586 194.195 132.547 194.266C132.508 194.336 132.484 194.375 132.477 194.383ZM128.434 195.32C128.434 194.977 128.492 194.668 128.609 194.395C128.727 194.121 128.883 193.883 129.078 193.68C129.281 193.469 129.516 193.305 129.781 193.188C130.055 193.062 130.34 192.98 130.637 192.941V194.172C130.387 194.258 130.18 194.41 130.016 194.629C129.852 194.84 129.77 195.055 129.77 195.273C129.77 195.578 129.852 195.824 130.016 196.012C130.18 196.199 130.387 196.363 130.637 196.504V197.84C130.379 197.715 130.121 197.582 129.863 197.441C129.605 197.293 129.371 197.121 129.16 196.926C128.949 196.73 128.773 196.504 128.633 196.246C128.5 195.988 128.434 195.68 128.434 195.32ZM128.621 200.102C128.73 200.164 128.867 200.227 129.031 200.289C129.203 200.344 129.379 200.398 129.559 200.453C129.738 200.5 129.918 200.539 130.098 200.57C130.277 200.602 130.445 200.617 130.602 200.617H130.637V201.73H130.613C130.426 201.73 130.23 201.719 130.027 201.695C129.832 201.68 129.633 201.648 129.43 201.602C129.227 201.555 129.031 201.492 128.844 201.414C128.664 201.328 128.508 201.227 128.375 201.109L128.621 200.102ZM131.117 196.738C131.375 196.855 131.637 196.98 131.902 197.113C132.176 197.246 132.422 197.41 132.641 197.605C132.859 197.793 133.039 198.023 133.18 198.297C133.32 198.57 133.391 198.91 133.391 199.316C133.391 199.598 133.336 199.871 133.227 200.137C133.125 200.402 132.977 200.645 132.781 200.863C132.594 201.074 132.359 201.254 132.078 201.402C131.797 201.551 131.477 201.648 131.117 201.695V200.57C131.758 200.414 132.078 199.988 132.078 199.293C132.078 199.02 131.988 198.793 131.809 198.613C131.629 198.434 131.398 198.266 131.117 198.109V196.738Z" fill="black"/>
<path d="M152.426 218.014L148.096 213.684L151.676 210.104L151.676 202.684L153.176 202.684L153.176 210.104L156.756 213.684L152.426 218.014Z" fill="black"/>
<path d="M350.426 238.014L346.096 233.684L349.676 230.104L349.676 222.684L351.176 222.684L351.176 230.104L354.756 233.684L350.426 238.014Z" fill="black"/>
</svg>
